<?xml version="1.0" encoding="utf-8"?>
<!-- Generator: Adobe Illustrator 25.0.0, SVG Export Plug-In . SVG Version: 6.00 Build 0)  -->
<svg version="1.1" id="Layer_1" xmlns="http://www.w3.org/2000/svg" xmlns:xlink="http://www.w3.org/1999/xlink" x="0px" y="0px"
	 viewBox="0 0 1000 441.2" style="enable-background:new 0 0 1000 441.2;" xml:space="preserve">
<style type="text/css">
	.st0{fill:#219EBC;}
	.st1{fill:#367280;}
	.st2{fill:#A4D4DF;}
	.st3{fill:#BEE6F0;}
</style>
<polygon class="st0" points="233.1,119.3 233.1,150.6 213.3,150.5 "/>
<g>
	<g>
		<g>
			<g>
				<g>
					<path class="st1" d="M343,334.8h-7.5c-0.2-0.6-0.6-1.3-0.8-1.9l5.2-5.2c1.7-1.7,1.7-4.2,0-5.8l-14.4-14.4
						c-1.7-1.7-4.2-1.7-5.8,0l-5.2,5.2c-0.6-0.4-1.3-0.6-1.9-0.8v-7.5c0-2.3-1.9-4.2-4.2-4.2H288c-2.3,0-4.2,1.9-4.2,4.2v7.5
						c-0.6,0.2-1.3,0.6-1.9,0.8l-5.2-5.2c-1.7-1.7-4.2-1.7-5.8,0l-14.4,14.4c-0.8,0.8-1.3,1.9-1.3,2.9s0.4,2.1,1.3,2.9l5.2,5.2
						c-0.4,0.6-0.6,1.3-0.8,1.9h-7.5c-2.3,0-4.2,1.9-4.2,4.2v20.4c0,2.3,1.9,4.2,4.2,4.2h7.5c0.2,0.6,0.6,1.3,0.8,1.9l-5.2,5.2
						c-0.8,0.8-1.3,1.9-1.3,2.9c0,1,0.4,2.1,1.3,2.9l14.4,14.4c1.7,1.7,4.2,1.7,5.8,0l5.2-5.2c0.6,0.4,1.3,0.6,1.9,0.8v7.5
						c0,2.3,1.9,4.2,4.2,4.2h20.4c2.3,0,4.2-1.9,4.2-4.2v-7.5c0.6-0.2,1.3-0.6,1.9-0.8l5.2,5.2c1.7,1.7,4.2,1.7,5.8,0l14.4-14.4
						c1.7-1.7,1.7-4.2,0-5.8l-5.2-5.2c0.4-0.6,0.6-1.3,0.8-1.9h7.5c2.3,0,4.2-1.9,4.2-4.2V339C347.2,336.7,345.3,334.8,343,334.8z
						 M338.8,355.2h-6.3c-1.9,0-3.3,1.3-4,2.9c-0.6,2.1-1.5,4.2-2.5,6c-1,1.7-0.6,3.8,0.6,5l4.4,4.4l-8.5,8.5l-4.4-4.4
						c-1.5-1.3-3.3-1.5-5-0.6c-1.9,1-4,1.9-6,2.5c-1.7,0.4-2.9,2.1-2.9,4v6.3h-12.1l0,0v-6.3c0-1.9-1.3-3.3-2.9-4
						c-2.1-0.6-4.2-1.5-6-2.5c-1.7-1-3.8-0.6-5,0.6l-4.4,4.4l-8.5-8.5l4.4-4.4c1.3-1.5,1.5-3.3,0.6-5c-1-1.9-1.9-4-2.5-6
						c-0.4-1.7-2.1-2.9-4-2.9h-6.3v-12.1h6.3c1.9,0,3.3-1.3,4-2.9c0.6-2.1,1.5-4.2,2.5-6c1-1.7,0.6-3.8-0.6-5l-4.4-4.4l8.5-8.5
						l4.4,4.4c1.5,1.3,3.3,1.5,5,0.6c1.9-1,4-1.9,6-2.5c1.7-0.4,2.9-2.1,2.9-4v-6.3h12.1v6.3c0,1.9,1.3,3.3,2.9,4
						c2.1,0.6,4.2,1.5,6,2.5c1.7,1,3.8,0.6,5-0.6l4.4-4.4l8.5,8.5l-4.4,4.4c-1.3,1.5-1.5,3.3-0.6,5c1,1.9,1.9,4,2.5,6
						c0.4,1.7,2.1,2.9,4,2.9h6.3V355.2L338.8,355.2z"/>
					<path class="st1" d="M298.2,326.5c-12.5,0-22.7,10.2-22.7,22.7c0,12.5,10.2,22.7,22.7,22.7s22.7-10.2,22.7-22.7
						S310.7,326.5,298.2,326.5z M298.2,363.6c-7.9,0-14.4-6.5-14.4-14.4c0-7.9,6.5-14.4,14.4-14.4c7.9,0,14.4,6.5,14.4,14.4
						C312.6,357.1,306.1,363.6,298.2,363.6z"/>
				</g>
			</g>
		</g>
		<path class="st1" d="M200.1,324.2c-9.8,34.5-34.5,89.7-93.4,100.5c-10-2.2-19.1-5.2-27.3-9.1c-19-9-34.3-23.4-45.9-43.5
			c-6.1-10.7-11.1-23-14.9-36.9c-3.8-13.9-5.7-27.2-5.7-39.7c0-13.3,3.7-23.5,11.2-30.6c7.4-7,17-10.6,28.6-10.6
			c11.2,0,19.7,3.2,25.4,9.7c5.7,6.5,10.1,16.6,13.2,30.3c3.2,14.7,6.5,26.4,9.7,35.2c3.2,8.8,8.7,16.3,16.3,22.6
			c7.6,6.3,18.5,9.4,32.6,9.4C175,361.5,191.8,349.1,200.1,324.2z"/>
		<path class="st0" d="M297.9,290.7c0.2-6.2,0.3-12.8,0.3-19.8l0-154.6h-62.6V151l-22.4-0.1l0.1,132.3c0,11.3-0.8,21.4-2.4,30.4
			c-0.9,5.4-2.2,10.3-3.7,14.8c0,0,0,0.1,0,0.1c-9.8,34.5-34.5,89.7-93.4,100.5c13.1,2.9,27.7,4.3,43.8,4.3
			c31.4,0,58.1-6.4,80.1-19.3c9.1-5.4,17.2-11.6,24.1-18.7c-13.5-10.7-22.2-27.3-22.2-45.9C239.6,317.1,265.7,290.9,297.9,290.7z
			 M224.8,250.8l4.4-17.2c6.2,3.4,14.9,6.5,24.4,6.5c8.4,0,14.1-3.2,14.1-9.1c0-5.6-4.7-9.1-15.6-12.8
			c-15.7-5.3-26.5-12.6-26.5-26.9c0-13,9.1-23.1,24.9-26.2v-14H265V164c9.9,0.4,16.5,2.5,21.3,4.8l-4.3,16.6c-3.8-1.6-10.6-5-21.2-5
			c-9.6,0-12.6,4.1-12.6,8.2c0,4.8,5.1,7.9,17.7,12.6c17.5,6.2,24.6,14.3,24.6,27.5c0,13.1-9.3,24.3-26.2,27.2v15h-14.4v-14
			C240,256.7,230.4,254,224.8,250.8z"/>
	</g>
	<g>
		<path class="st1" d="M256,4.5c-23.3,0-42.2,18.9-42.2,42.2c0,23.3,18.9,42.2,42.2,42.2c23.3,0,42.2-18.9,42.2-42.2
			C298.2,23.4,279.3,4.5,256,4.5z"/>
		<path class="st2" d="M285.1,48.6c4-1.4,8.3-2.3,13-2.7c0-0.8,0-1.5-0.1-2.3c-5,0.4-9.5,1.4-13.4,2.7c-1.1-4.5-2.4-8.6-4-12.2
			c4.2-1.7,8.5-3.9,13-6.5c-0.3-0.7-0.7-1.3-1.1-2c-4.5,2.6-8.8,4.7-12.9,6.4c-3.1-6.5-6.8-11.4-10.4-15.1c-1.1-1.1-2.2-2.2-3.3-3.1
			c4.1-1.1,8.5-2,13.1-2.6c-1-0.7-2-1.3-3.1-1.9c-3.7,0.6-7.1,1.3-10.3,2.2c0.8-2.2,1.5-4,2.2-5.5c-0.7-0.2-1.5-0.4-2.2-0.6
			c-0.7,1.6-1.6,3.7-2.4,6.1c-4.5-3.5-8.9-5.7-12.1-7c-1.6,0.2-3.1,0.4-4.6,0.8c2.5,0.7,8.3,2.8,14.7,7.5c-8.6,2.9-15.3,7-20.6,11.6
			c-3.3-6.5-6.8-11-8.4-12.9c-0.6,0.4-1.2,0.9-1.8,1.3c1.5,1.7,5.2,6.4,8.5,13.1c-3.2,3-5.9,6.2-8,9.4c-5.9-1.9-10.4-4.5-13.3-6.4
			c-0.3,0.7-0.6,1.4-0.9,2.1c2.9,1.9,7.3,4.3,12.9,6.2c-1.3,2.1-2.4,4.2-3.4,6.3c-1.2,2.6-2.2,5.1-3,7.6c-4.5-7.2-6.9-13.7-7.8-16.6
			c-0.4,1.3-0.7,2.7-1,4.1c1.4,3.8,3.9,9.4,7.9,15.4c-1.6,5.8-2.2,11-2.4,14.5c0.7,1.1,1.4,2.2,2.2,3.2c0-2.6,0.2-8.3,1.9-15.2
			c0.7,1,1.5,2,2.3,3c3.6,4.5,8.4,9.2,14.6,13.2c-1.5,3.5-3.4,7-5.7,10.4c0.7,0.4,1.3,0.7,2,1.1c2.3-3.5,4.1-6.9,5.6-10.3
			c3.6,2.1,7.6,4,12,5.5c-1,3.8-1.4,7-1.6,9.1c0.8,0,1.5,0.1,2.3,0.1c0.2-1.9,0.6-4.9,1.5-8.5c5.8,1.7,12.2,2.7,19.5,2.7
			c0.2,0,0.5,0,0.7,0c1.2-0.7,2.5-1.5,3.6-2.4c-8.4,0.5-16.2-0.4-23.3-2.4c0.8-2.7,1.9-5.5,3.3-8.4c2.3-4.6,5.2-8.5,8.6-11.8
			c3.9,4.4,9,8.2,15.2,11.3c0,2.8-0.2,5.7-0.4,8.6c0.8-0.8,1.7-1.6,2.4-2.4c0.1-1.8,0.2-3.5,0.2-5.1c1,0.4,2,0.9,3,1.3
			c0.5-0.6,0.9-1.3,1.3-1.9c-1.5-0.6-2.9-1.2-4.3-1.9C287,60.7,286.3,54.3,285.1,48.6z M264.5,15.6c1.1,0.9,2.1,1.9,3.2,3
			c4,4.1,7.3,9,10,14.4c-5.3,2.1-10.4,3.5-15.1,4.3C261.5,29.5,262.7,21.8,264.5,15.6z M262.2,15.1c-1.8,6.4-3.1,14.4-2,22.6
			c-5.3,0.8-10.1,1-14.5,0.7c-0.4-1.7-0.9-3.3-1.4-4.8c-0.8-2.5-1.8-4.8-2.8-6.9C247.3,21.6,254.2,17.8,262.2,15.1z M239.9,28.3
			c0.9,1.9,1.7,3.9,2.4,6c0.4,1.3,0.8,2.6,1.2,3.9c-3-0.3-5.8-0.8-8.2-1.4c-0.7-0.2-1.5-0.4-2.2-0.6
			C235.1,33.4,237.4,30.7,239.9,28.3z M241.8,70.9c-5-3.3-9.5-7.5-13.6-12.5c-1.2-1.5-2.3-3-3.3-4.5c0.8-2.9,2-6,3.4-9.2
			c1.1-2.3,2.2-4.4,3.5-6.4c0.9,0.3,1.8,0.5,2.8,0.8c2.8,0.7,5.9,1.2,9.4,1.5C246.3,50.9,245.6,61.1,241.8,70.9z M258.9,68.9
			c-1.5,3-2.6,6-3.4,8.7c-4.2-1.4-8.1-3.2-11.8-5.5c4.6-11.8,4.5-22.6,2.7-31.4c1.1,0.1,2.2,0.1,3.4,0.1c3.4,0,7.1-0.3,10.9-0.9
			c0.4,2,1,4.1,1.7,6.1c1.4,3.7,3.3,7.2,5.8,10.3C263.9,60.4,260.9,64.8,258.9,68.9z M269.8,54.8c-2.3-2.9-4.1-6.1-5.3-9.5
			c-0.7-1.9-1.2-3.8-1.6-5.7c4.9-0.9,10.1-2.4,15.7-4.5c1.7,3.8,3,7.8,4,12.2C277.4,49.2,273.2,51.9,269.8,54.8z M271.2,56.5
			c3.4-3,7.4-5.3,11.8-7.1c1.1,5.4,1.6,11.2,1.7,17.4C279.2,63.9,274.7,60.5,271.2,56.5z"/>
		<g>
			<path class="st3" d="M283.8,44.6c-1.8,0-3.3,1.5-3.3,3.3c0,1.8,1.5,3.3,3.3,3.3c1.8,0,3.3-1.5,3.3-3.3
				C287.1,46.1,285.6,44.6,283.8,44.6z"/>
			<path class="st3" d="M269.5,52.9c-1.8,0-3.3,1.5-3.3,3.3c0,1.8,1.5,3.3,3.3,3.3c1.8,0,3.3-1.5,3.3-3.3
				C272.8,54.4,271.4,52.9,269.5,52.9z"/>
			<path class="st3" d="M256.1,75.9c-1.8,0-3.3,1.5-3.3,3.3c0,1.8,1.5,3.3,3.3,3.3s3.3-1.5,3.3-3.3C259.4,77.4,258,75.9,256.1,75.9z
				"/>
			<path class="st3" d="M242.3,69.1c-1.8,0-3.3,1.5-3.3,3.3s1.5,3.3,3.3,3.3c1.8,0,3.3-1.5,3.3-3.3
				C245.6,70.6,244.1,69.1,242.3,69.1z"/>
			<path class="st3" d="M223.5,50.7c-1.8,0-3.3,1.5-3.3,3.3c0,1.8,1.5,3.3,3.3,3.3c1.8,0,3.3-1.5,3.3-3.3
				C226.8,52.2,225.4,50.7,223.5,50.7z"/>
			<path class="st3" d="M231.4,33.6c-1.8,0-3.3,1.5-3.3,3.3c0,1.8,1.5,3.3,3.3,3.3c1.8,0,3.3-1.5,3.3-3.3
				C234.7,35.1,233.2,33.6,231.4,33.6z"/>
			<path class="st3" d="M245.1,36.3c-1.8,0-3.3,1.5-3.3,3.3c0,1.8,1.5,3.3,3.3,3.3c1.8,0,3.3-1.5,3.3-3.3
				C248.4,37.8,246.9,36.3,245.1,36.3z"/>
			<path class="st3" d="M240.1,22.9c-1.8,0-3.3,1.5-3.3,3.3c0,1.8,1.5,3.3,3.3,3.3c1.8,0,3.3-1.5,3.3-3.3
				C243.4,24.4,241.9,22.9,240.1,22.9z"/>
			<path class="st3" d="M264,9c-2.3,0-4.1,1.9-4.1,4.1c0,2.3,1.9,4.1,4.1,4.1c2.3,0,4.1-1.9,4.1-4.1C268.1,10.8,266.3,9,264,9z"/>
			<path class="st3" d="M261.5,35.6c-1.8,0-3.3,1.5-3.3,3.3c0,1.8,1.5,3.3,3.3,3.3s3.3-1.5,3.3-3.3C264.8,37,263.3,35.6,261.5,35.6z
				"/>
			<path class="st3" d="M279.3,30.3c-1.8,0-3.3,1.5-3.3,3.3c0,1.8,1.5,3.3,3.3,3.3c1.8,0,3.3-1.5,3.3-3.3
				C282.6,31.8,281.2,30.3,279.3,30.3z"/>
			<path class="st3" d="M285.7,65c-1.8,0-3.3,1.5-3.3,3.3c0,1.8,1.5,3.3,3.3,3.3c1.8,0,3.3-1.5,3.3-3.3C289,66.4,287.6,65,285.7,65z
				"/>
		</g>
	</g>
</g>
<g>
	<path class="st1" d="M350.7,262.4c-1.4-4.5,1.1-9.2,5.6-10.6c4.5-1.4,9.2,1.1,10.6,5.6c3.5,11.3,11.9,16.3,24,16.3
		c20.1,0,24.8-15.2,24.8-24.1V195c0-4.6,3.8-8.4,8.5-8.4c4.6,0,8.4,3.8,8.4,8.4v54.6c0,21.8-15.5,41-41.7,41
		C370.8,290.6,356.4,280.5,350.7,262.4z"/>
	<path class="st1" d="M464.7,280v-84.8c0-4.6,3.8-8.4,8.4-8.4c4.6,0,8.5,3.8,8.5,8.4V280c0,4.6-3.9,8.4-8.5,8.4
		C468.5,288.3,464.7,284.6,464.7,280z"/>
	<path class="st1" d="M513.7,279.7v-84.3c0-3.6,2.2-6.8,5.6-8.1c3.3-1.4,7.1-0.4,9.5,2.2l36.6,39.8l36.4-39.8
		c2.4-2.7,6.1-3.6,9.5-2.2c3.3,1.3,5.6,4.5,5.6,8.1v84.3c0,4.7-3.9,8.7-8.7,8.7c-4.9,0-8.7-3.9-8.7-8.7v-62.2L571.7,248
		c-1.7,1.8-4,2.9-6.4,2.9c-2.5,0-4.9-1.1-6.4-2.9L531,217.5v62.2c0,4.7-3.8,8.7-8.7,8.7C517.6,288.3,513.7,284.4,513.7,279.7z"/>
	<path class="st1" d="M648.9,249.5V195c0-4.6,3.8-8.4,8.4-8.4c4.6,0,8.5,3.8,8.5,8.4v54.4c0,7.7,4,24.3,25.4,24.3
		c20.1,0,24.8-15.2,24.8-24.1V195c0-4.6,3.9-8.4,8.5-8.4s8.4,3.8,8.4,8.4v54.6c0,19.3-13.3,41-41.7,41
		C660.1,290.6,648.9,266,648.9,249.5z"/>
	<path class="st1" d="M765,280v-84.8c0-4.6,3.8-8.4,8.5-8.4h37.4c18.8,0,46.9,13.3,46.9,50.5c0,28.9-19.1,51.1-46.9,51.1h-37.4
		C768.8,288.3,765,284.6,765,280z M810.9,271.5c18.8,0,30-14.8,30-34.2c0-27.2-20-33.6-30-33.6h-29v67.8H810.9z"/>
	<path class="st1" d="M885.7,249.5V195c0-4.6,3.8-8.4,8.4-8.4c4.6,0,8.5,3.8,8.5,8.4v54.4c0,7.7,4,24.3,25.4,24.3
		c20.1,0,24.8-15.2,24.8-24.1V195c0-4.6,3.9-8.4,8.5-8.4c4.6,0,8.4,3.8,8.4,8.4v54.6c0,19.3-13.3,41-41.7,41
		C896.8,290.6,885.7,266,885.7,249.5z"/>
</g>
</svg>
