<?xml version="1.0" encoding="utf-8"?>
<!-- Generator: Adobe Illustrator 25.0.0, SVG Export Plug-In . SVG Version: 6.00 Build 0)  -->
<svg version="1.1" id="Layer_1" xmlns="http://www.w3.org/2000/svg" xmlns:xlink="http://www.w3.org/1999/xlink" x="0px" y="0px"
	 viewBox="0 0 1000 441.2" style="enable-background:new 0 0 1000 441.2;" xml:space="preserve">
<style type="text/css">
	.st0{fill:#FFFFFF;}
	.st1{fill:#ADDFF8;}
</style>
<g>
	<g>
		<g>
			<path class="st0" d="M341.3,336.5h-7.5c-0.2-0.6-0.6-1.3-0.8-1.9l5.2-5.2c1.7-1.7,1.7-4.2,0-5.8l-14.4-14.4
				c-1.7-1.7-4.2-1.7-5.8,0l-5.2,5.2c-0.6-0.4-1.3-0.6-1.9-0.8v-7.5c0-2.3-1.9-4.2-4.2-4.2h-20.4c-2.3,0-4.2,1.9-4.2,4.2v7.5
				c-0.6,0.2-1.3,0.6-1.9,0.8l-5.2-5.2c-1.7-1.7-4.2-1.7-5.8,0l-14.4,14.4c-0.8,0.8-1.3,1.9-1.3,2.9s0.4,2.1,1.3,2.9l5.2,5.2
				c-0.4,0.6-0.6,1.3-0.8,1.9h-7.5c-2.3,0-4.2,1.9-4.2,4.2v20.4c0,2.3,1.9,4.2,4.2,4.2h7.5c0.2,0.6,0.6,1.3,0.8,1.9l-5.2,5.2
				c-0.8,0.8-1.3,1.9-1.3,2.9c0,1,0.4,2.1,1.3,2.9l14.4,14.4c1.7,1.7,4.2,1.7,5.8,0l5.2-5.2c0.6,0.4,1.3,0.6,1.9,0.8v7.5
				c0,2.3,1.9,4.2,4.2,4.2h20.4c2.3,0,4.2-1.9,4.2-4.2v-7.5c0.6-0.2,1.3-0.6,1.9-0.8l5.2,5.2c1.7,1.7,4.2,1.7,5.8,0l14.4-14.4
				c1.7-1.7,1.7-4.2,0-5.8l-5.2-5.2c0.4-0.6,0.6-1.3,0.8-1.9h7.5c2.3,0,4.2-1.9,4.2-4.2v-20.4C345.5,338.4,343.6,336.5,341.3,336.5z
				 M337.1,356.9h-6.3c-1.9,0-3.3,1.3-4,2.9c-0.6,2.1-1.5,4.2-2.5,6c-1,1.7-0.6,3.8,0.6,5l4.4,4.4l-8.5,8.5l-4.4-4.4
				c-1.5-1.3-3.3-1.5-5-0.6c-1.9,1-4,1.9-6,2.5c-1.7,0.4-2.9,2.1-2.9,4v6.3h-12.1l0,0v-6.3c0-1.9-1.3-3.3-2.9-4
				c-2.1-0.6-4.2-1.5-6-2.5c-1.7-1-3.8-0.6-5,0.6l-4.4,4.4l-8.5-8.5l4.4-4.4c1.3-1.5,1.5-3.3,0.6-5c-1-1.9-1.9-4-2.5-6
				c-0.4-1.7-2.1-2.9-4-2.9h-6.3v-12.1h6.3c1.9,0,3.3-1.3,4-2.9c0.6-2.1,1.5-4.2,2.5-6c1-1.7,0.6-3.8-0.6-5l-4.4-4.4l8.5-8.5
				l4.4,4.4c1.5,1.3,3.3,1.5,5,0.6c1.9-1,4-1.9,6-2.5c1.7-0.4,2.9-2.1,2.9-4v-6.3h12.1v6.3c0,1.9,1.3,3.3,2.9,4
				c2.1,0.6,4.2,1.5,6,2.5c1.7,1,3.8,0.6,5-0.6l4.4-4.4l8.5,8.5l-4.4,4.4c-1.3,1.5-1.5,3.3-0.6,5c1,1.9,1.9,4,2.5,6
				c0.4,1.7,2.1,2.9,4,2.9h6.3V356.9L337.1,356.9z"/>
			<path class="st0" d="M296.5,328.2c-12.5,0-22.7,10.2-22.7,22.7c0,12.5,10.2,22.7,22.7,22.7s22.7-10.2,22.7-22.7
				S309,328.2,296.5,328.2z M296.5,365.2c-7.9,0-14.4-6.5-14.4-14.4c0-7.9,6.5-14.4,14.4-14.4s14.4,6.5,14.4,14.4
				C310.9,358.8,304.4,365.2,296.5,365.2z"/>
		</g>
	</g>
</g>
<g>
	<polygon class="st1" points="231.4,118.9 231.4,150.3 211.6,150.2 	"/>
	<path class="st1" d="M296.2,292.4c0.2-6.2,0.3-12.8,0.3-19.8l0-154.6H234v34.7l-22.4-0.1l0.1,132.3c0,11.3-0.8,21.4-2.4,30.4
		c-0.9,5.4-2.2,10.3-3.7,14.8c0,0,0,0.1,0,0.1c-9.8,34.5-34.5,89.7-93.4,100.5c13.1,2.9,27.7,4.3,43.8,4.3
		c31.4,0,58.1-6.4,80.1-19.3c9.1-5.4,17.2-11.6,24.1-18.7c-13.5-10.7-22.2-27.3-22.2-45.9C237.9,318.8,264,292.6,296.2,292.4z
		 M223.1,252.5l4.4-17.2c6.2,3.4,14.9,6.5,24.4,6.5c8.4,0,14.1-3.2,14.1-9.1c0-5.6-4.7-9.1-15.6-12.8c-15.7-5.3-26.5-12.6-26.5-26.9
		c0-13,9.1-23.1,24.9-26.2v-14h14.4v12.9c9.9,0.4,16.5,2.5,21.3,4.8l-4.3,16.6c-3.8-1.6-10.6-5-21.2-5c-9.6,0-12.6,4.1-12.6,8.2
		c0,4.8,5.1,7.9,17.7,12.6c17.5,6.2,24.6,14.3,24.6,27.5c0,13.1-9.3,24.3-26.2,27.2v15h-14.4v-14
		C238.3,258.4,228.7,255.7,223.1,252.5z"/>
</g>
<path class="st0" d="M198.4,325.9c-9.8,34.5-34.5,89.7-93.4,100.5c-10-2.2-19.1-5.2-27.3-9.1c-19-9-34.3-23.4-45.9-43.5
	c-6.1-10.7-11.1-23-14.9-36.9c-3.8-13.9-5.7-27.2-5.7-39.7c0-13.3,3.7-23.5,11.2-30.6c7.4-7,17-10.6,28.6-10.6
	c11.2,0,19.7,3.2,25.4,9.7c5.7,6.5,10.1,16.6,13.2,30.3c3.2,14.7,6.5,26.4,9.7,35.2c3.2,8.8,8.7,16.3,16.3,22.6
	c7.6,6.3,18.5,9.4,32.6,9.4C173.3,363.2,190.1,350.7,198.4,325.9z"/>
<path class="st0" d="M296.4,47.6c-4.1,0.4-7.9,1.1-11.5,2.2c0-0.1,0-0.1,0-0.2c0-0.7-0.2-1.4-0.6-1.9c3.6-1.1,7.6-1.9,12-2.3
	c-0.4-5.7-1.9-11.1-4.4-16c-3.9,2.3-7.7,4.2-11.4,5.8c0-0.8-0.3-1.5-0.9-2.1c3.6-1.6,7.3-3.4,11.2-5.7c-3.3-5.8-7.9-10.7-13.5-14.3
	c-4,0.5-7.8,1.2-11.4,2.1c0-0.1,0-0.2,0-0.3c0-0.7-0.2-1.3-0.5-1.9c2.7-0.7,5.6-1.3,8.7-1.8c-2.5-1.4-5.3-2.5-8.1-3.3
	c-0.5,1.1-1,2.4-1.6,3.9c-0.6-0.5-1.3-0.9-2.1-1c0.5-1.3,1-2.5,1.4-3.5c-3.1-0.7-6.4-1.1-9.7-1.1c-1.6,0-3.2,0.1-4.7,0.3
	c2.6,1.1,6.1,2.8,9.7,5.3c-0.6,0.5-1,1.1-1.3,1.9c-5.7-3.9-10.8-5.7-13-6.4c-5.2,1.2-10.1,3.3-14.4,6.3c1.5,1.7,4.5,5.6,7.6,11.2
	c0,0,0,0,0,0c-0.8,0-1.6,0.3-2.1,0.8c-3-5.4-6-9.1-7.3-10.6c-5.5,4.2-9.9,9.7-12.8,16.1c2.5,1.7,6.2,3.8,11,5.5
	c-0.5,0.6-0.8,1.3-0.8,2.1c-4.7-1.8-8.4-3.8-11.1-5.5c-0.4,1.1-0.8,2.2-1.2,3.4c0.9,2.8,3.1,9.1,7.4,16c-0.8,0.1-1.5,0.4-2.1,1
	c-3-5-5.1-9.6-6.3-12.9c-0.5,2.5-0.7,5.1-0.7,7.7c0,8.1,2.3,15.6,6.2,22.1c0.2-2.9,0.6-7,1.7-11.7c0.4,0.2,0.9,0.4,1.5,0.4
	c0.3,0,0.6,0,0.8-0.1c-1.6,6.7-1.8,12.2-1.8,14.7c3.5,4.7,8,8.6,13.1,11.5c1.8-2.7,3.4-5.5,4.7-8.3c0.5,0.4,1.2,0.7,2,0.7
	c0.1,0,0.1,0,0.2,0c-1.3,2.9-2.9,5.8-4.9,8.7c4.9,2.4,10.3,3.9,16,4.3c0.1-1.6,0.4-3.9,1-6.6c0.4,0.2,0.9,0.4,1.5,0.4
	c0.3,0,0.5,0,0.8-0.1c-0.6,2.6-0.9,4.8-1,6.4c0.1,0,0.3,0,0.4,0c7.8,0,15.1-2.1,21.3-5.8c-0.2,0-0.5,0-0.7,0
	c-6.6,0-12.6-0.8-17.9-2.2c0.3-0.5,0.4-1,0.4-1.6c0-0.2,0-0.4-0.1-0.6c6.7,1.8,14,2.5,21.9,2c1.2-0.9,2.3-1.8,3.4-2.7
	c0.2-2.2,0.3-4.3,0.4-6.4c0.2,0.1,0.5,0.1,0.8,0.1c0.6,0,1.1-0.2,1.5-0.4c0,1.4-0.1,2.8-0.2,4.3c1.1-1.2,2.2-2.5,3.2-3.8
	c-0.8-0.3-1.5-0.6-2.3-1c0.6-0.5,0.9-1.2,1-2c0.9,0.4,1.7,0.8,2.6,1.1c4.4-6.6,6.9-14.6,6.9-23.1C296.5,48.1,296.4,47.9,296.4,47.6z
	 M270.7,57.2c-0.2-0.8-0.6-1.4-1.2-1.9c2.6-2,5.5-3.9,8.9-5.4c0.1,0.8,0.4,1.5,0.9,2C276.2,53.4,273.3,55.1,270.7,57.2z M264.9,55.9
	c-1.7-2.5-3.2-5.3-4.2-8.2c-0.5-1.3-0.9-2.6-1.2-3.8c0.8,0,1.6-0.3,2.1-0.8c0.3,1.3,0.7,2.6,1.2,3.9c1,2.8,2.4,5.3,4,7.7
	C266,54.9,265.4,55.3,264.9,55.9z M242.7,72c-0.5-0.6-1.2-0.9-2-1c3-8.6,3.7-17.3,2.1-26.3c0.1,0,0.2,0,0.3,0c0.7,0,1.4-0.2,1.9-0.6
	C246.3,52,246.3,61.6,242.7,72z M235.3,29.8c0.4,0.6,1,1.1,1.8,1.3c-1.8,1.8-3.4,3.8-4.9,5.9c-0.4-0.7-1-1.2-1.7-1.4
	C231.9,33.6,233.5,31.7,235.3,29.8z M240.7,30c0.7,1.7,1.4,3.4,2.1,5.3c0.3,0.9,0.6,1.9,0.9,2.8c-0.2,0-0.3-0.1-0.5-0.1
	c-0.6,0-1.2,0.2-1.7,0.5c-0.2-0.8-0.5-1.7-0.8-2.5c-0.6-1.7-1.2-3.3-1.9-4.8C239.5,31,240.2,30.6,240.7,30z M232.6,38.3
	c0.3,0.1,0.7,0.2,1,0.3c2,0.5,4.2,0.9,6.6,1.2c-0.3,0.5-0.4,1-0.4,1.6c0,0.2,0,0.4,0.1,0.6c-2.5-0.3-4.8-0.8-6.9-1.3
	c-0.3-0.1-0.6-0.2-0.9-0.2c0.4-0.5,0.6-1.2,0.6-1.9C232.6,38.5,232.6,38.4,232.6,38.3z M246.1,40.2c3.1,0.1,6.5,0,10.1-0.5
	c-0.1,0.3-0.1,0.6-0.1,0.9c0,0.5,0.1,1,0.3,1.4c-3,0.4-5.8,0.5-8.5,0.5c-0.6,0-1.2,0-1.9,0c0.1-0.4,0.2-0.7,0.2-1.1
	C246.3,40.9,246.3,40.6,246.1,40.2z M260,18.6c0.6,0.3,1.2,0.5,1.9,0.5c0.2,0,0.3,0,0.4,0c-1.4,5.4-2.3,11.9-1.7,18.6
	c-0.4-0.2-0.8-0.2-1.2-0.2c-0.4,0-0.8,0.1-1.1,0.2C257.7,30.7,258.6,24.1,260,18.6z M274,35.4c0,0.8,0.3,1.5,0.8,2.1
	c-4.2,1.5-8.3,2.7-12.1,3.5c0-0.1,0-0.2,0-0.4c0-0.7-0.2-1.3-0.6-1.8C265.9,38,269.8,36.9,274,35.4z M280.3,46.7
	c-0.7-2.8-1.6-5.5-2.7-8.1c0.8-0.1,1.5-0.4,2-1c1.1,2.7,2.1,5.7,2.9,8.9c-0.3-0.1-0.5-0.1-0.8-0.1C281.2,46.3,280.7,46.5,280.3,46.7
	z M267.6,18.7c3.3,3.4,6.6,7.7,9.5,13.3c-0.8,0-1.5,0.4-2.1,0.9c-2.5-4.7-5.5-8.9-9.1-12.6c-0.6-0.7-1.3-1.3-1.9-1.9
	c0.7-0.4,1.2-1,1.6-1.6C266.2,17.4,266.9,18,267.6,18.7z M257.8,15.4c0.1,0.8,0.4,1.5,0.9,2c-6.6,2.4-12.4,5.7-17.4,9.8
	c-0.2-0.7-0.6-1.4-1.2-1.8C244.8,21.5,250.7,18.1,257.8,15.4z M226.9,40.9c0.5,0.6,1.3,0.9,2.1,1c-0.8,1.5-1.7,3-2.4,4.5
	c-1.1,2.4-2,4.8-2.8,7.1c-0.5-0.5-1.3-0.9-2.1-1c0.8-2.3,1.6-4.6,2.8-7C225.2,44,226,42.5,226.9,40.9z M224.7,61.4
	c-0.7-0.9-1.4-1.7-2-2.6c0.7-0.3,1.3-0.8,1.7-1.5c0.7,0.9,1.4,1.9,2.1,2.8c3.6,4.4,7.6,8.2,11.9,11.3c-0.6,0.4-1.1,1-1.3,1.8
	C232,69.5,227.9,65.4,224.7,61.4z M243.5,74.7c2.7,1.5,5.4,2.8,8.3,3.9c-0.5,0.5-0.9,1.2-1,2c-3-1.1-5.8-2.5-8.4-3.9
	C243,76.1,243.3,75.4,243.5,74.7z M256.4,78.6c-0.5-0.5-1.3-0.9-2.1-0.9c0.8-2.3,1.7-4.7,2.9-7.1c1.8-3.5,4.2-7.3,7.5-10.8
	c0.4,0.6,1,1.1,1.8,1.3c-2.8,3-5.2,6.5-7.2,10.4C258.1,73.9,257.1,76.3,256.4,78.6z M268.9,60.9c0.7-0.3,1.3-0.9,1.6-1.6
	c3,3.1,6.6,5.9,10.9,8.4c-0.6,0.5-0.9,1.2-1,2C275.9,67.1,272.1,64.2,268.9,60.9z M282.9,66.8c-0.1-4.9-0.6-9.5-1.3-13.9
	c0,0,0.1,0,0.1,0c0.8,0,1.5-0.3,2.1-0.8c0.8,4.5,1.3,9.5,1.5,15c-0.5-0.3-1-0.4-1.6-0.4C283.4,66.7,283.2,66.7,282.9,66.8z"/>
<g>
	<path class="st0" d="M345.9,230.9c-1.4-4.6,1.2-9.5,5.8-10.9c4.6-1.4,9.5,1.2,10.9,5.8c3.6,11.7,12.2,16.8,24.8,16.8
		c20.7,0,25.6-15.7,25.6-24.9v-56.3c0-4.8,3.9-8.6,8.8-8.6c4.8,0,8.6,3.9,8.6,8.6v56.3c0,22.5-16,42.3-43.1,42.3
		C366.6,260,351.8,249.6,345.9,230.9z"/>
	<path class="st0" d="M463.5,249.1v-87.5c0-4.8,3.9-8.6,8.6-8.6c4.8,0,8.8,3.9,8.8,8.6v87.5c0,4.8-4,8.6-8.8,8.6
		C467.4,257.7,463.5,253.8,463.5,249.1z"/>
	<path class="st0" d="M514.1,248.8v-87c0-3.7,2.3-7.1,5.8-8.4c3.5-1.4,7.3-0.4,9.8,2.3l37.7,41l37.6-41c2.4-2.7,6.3-3.7,9.8-2.3
		c3.5,1.3,5.8,4.6,5.8,8.4v87c0,4.9-4,8.9-8.9,8.9c-5,0-8.9-4-8.9-8.9v-64.2L574,216.1c-1.7,1.9-4.2,3-6.6,3c-2.6,0-5-1.2-6.6-3
		l-28.8-31.5v64.2c0,4.9-3.9,8.9-8.9,8.9C518.1,257.7,514.1,253.7,514.1,248.8z"/>
	<path class="st0" d="M653.6,217.7v-56.3c0-4.8,3.9-8.6,8.6-8.6c4.8,0,8.8,3.9,8.8,8.6v56.2c0,7.9,4.2,25.1,26.2,25.1
		c20.7,0,25.6-15.7,25.6-24.9v-56.3c0-4.8,4-8.6,8.8-8.6c4.8,0,8.6,3.9,8.6,8.6v56.3c0,19.9-13.7,42.3-43.1,42.3
		C665.1,260,653.6,234.7,653.6,217.7z"/>
	<path class="st0" d="M773.4,249.1v-87.5c0-4.8,3.9-8.6,8.8-8.6h38.6c19.4,0,48.4,13.7,48.4,52.1c0,29.8-19.7,52.7-48.4,52.7h-38.6
		C777.3,257.7,773.4,253.8,773.4,249.1z M820.8,240.3c19.4,0,31-15.3,31-35.3c0-28.1-20.6-34.7-31-34.7h-29.9v70H820.8z"/>
	<path class="st0" d="M897.9,217.7v-56.3c0-4.8,3.9-8.6,8.6-8.6c4.8,0,8.8,3.9,8.8,8.6v56.2c0,7.9,4.2,25.1,26.2,25.1
		c20.7,0,25.6-15.7,25.6-24.9v-56.3c0-4.8,4-8.6,8.8-8.6c4.8,0,8.6,3.9,8.6,8.6v56.3c0,19.9-13.7,42.3-43.1,42.3
		C909.5,260,897.9,234.7,897.9,217.7z"/>
</g>
<g>
	<path class="st1" d="M392.4,351.3l-3.8-30h-0.2c-0.1,1.1-0.3,2.6-0.7,4.6s-0.6,3.5-0.9,4.6l-4.4,20.8h-3.7l7.1-33.8h5.6l3.4,27.8
		h0.2l15.2-27.8h6.1l-7,33.8h-4c1.9-9.1,3.4-16.1,4.5-20.9s1.8-7.9,2.2-9.1H412l-16.6,30H392.4z"/>
	<path class="st1" d="M433.5,338.4l12.2-12.4h4.6l-10.8,10.8l6.8,14.5H442l-5.4-12.1L433,342l-1.9,9.3h-3.9l7.6-36h3.9
		c-1.1,5.2-2.1,9.8-3,13.9C434.9,333.3,434.1,336.4,433.5,338.4L433.5,338.4z"/>
	<path class="st1" d="M473.3,325.6c2.9,0,5.2,0.9,6.9,2.6c1.7,1.7,2.5,4.1,2.5,7.2c0,2.9-0.6,5.6-1.7,8.2c-1.1,2.6-2.6,4.6-4.5,6
		c-1.9,1.4-4,2.1-6.4,2.1c-3,0-5.3-0.9-7-2.6c-1.7-1.7-2.5-4.1-2.5-7.1c0-2.9,0.6-5.7,1.7-8.3s2.6-4.6,4.6-5.9
		C468.8,326.3,471,325.6,473.3,325.6z M478.8,334.9c0-1.8-0.5-3.2-1.4-4.3c-1-1.1-2.3-1.7-3.9-1.7c-1.7,0-3.2,0.6-4.5,1.7
		c-1.3,1.1-2.4,2.7-3.1,4.8c-0.7,2-1.1,4.3-1.1,6.8c0,2,0.5,3.6,1.5,4.7c1,1.1,2.4,1.7,4.2,1.7c1.6,0,3-0.6,4.3-1.7s2.3-2.7,3-4.8
		C478.4,339.9,478.8,337.5,478.8,334.9z"/>
	<path class="st1" d="M510.5,351.3l3.4-16c0.3-1.4,0.4-2.5,0.4-3.1c0-1.1-0.2-1.9-0.7-2.5c-0.5-0.6-1.3-0.9-2.5-0.9
		c-1.3,0-2.6,0.5-3.8,1.4s-2.3,2.2-3.2,4s-1.7,3.8-2.2,6.2l-2.3,11h-3.9l5.4-25.3h3.2l-0.5,4.7h0.2c1.3-1.8,2.7-3.2,4-4
		c1.3-0.8,2.7-1.2,4.1-1.2c1.7,0,3.1,0.5,4,1.5c0.9,1,1.5,2.4,1.7,4.2h0.2c1.3-1.9,2.7-3.4,4.2-4.3c1.5-0.9,3-1.4,4.5-1.4
		c2,0,3.5,0.5,4.5,1.6c1.1,1,1.6,2.6,1.6,4.6c0,1-0.2,2.4-0.5,4.1l-3.3,15.5h-3.9l3.4-16c0.3-1.6,0.5-2.7,0.5-3.4
		c0-1-0.3-1.7-0.8-2.3c-0.5-0.6-1.4-0.9-2.5-0.9c-1.2,0-2.5,0.4-3.7,1.3c-1.2,0.9-2.3,2.2-3.2,3.8c-0.9,1.6-1.6,3.6-2.1,5.8
		l-2.5,11.6H510.5z"/>
	<path class="st1" d="M557.8,351.8c-1.5,0-2.8-0.4-3.9-1.2s-2-1.9-2.6-3.2h-0.2l-1.6,3.9h-2.9l7.6-36h3.9c-0.8,3.7-1.4,6.6-1.8,8.6
		c-0.4,2-1,4.3-1.7,6.9h0.2c1.4-1.8,2.8-3.2,4.2-4c1.4-0.9,2.8-1.3,4.3-1.3c2.2,0,3.9,0.8,5.1,2.3c1.2,1.5,1.8,3.6,1.8,6.3
		c0,3.2-0.5,6.2-1.6,8.9c-1.1,2.7-2.5,4.9-4.4,6.4C562.3,351,560.2,351.8,557.8,351.8z M562.1,328.8c-1.5,0-3,0.7-4.5,2.2
		c-1.5,1.5-2.8,3.3-3.7,5.5c-0.9,2.2-1.4,4.5-1.4,6.8c0,1.7,0.4,3,1.3,3.9c0.9,0.9,2.1,1.4,3.7,1.4c1.5,0,2.9-0.6,4.3-1.9
		c1.3-1.2,2.4-3,3.2-5.3c0.8-2.3,1.2-4.8,1.2-7.3C566.2,330.5,564.9,328.8,562.1,328.8z"/>
	<path class="st1" d="M596.9,325.6c2.9,0,5.2,0.9,6.9,2.6c1.7,1.7,2.5,4.1,2.5,7.2c0,2.9-0.6,5.6-1.7,8.2c-1.1,2.6-2.6,4.6-4.5,6
		s-4,2.1-6.4,2.1c-3,0-5.3-0.9-7-2.6c-1.7-1.7-2.5-4.1-2.5-7.1c0-2.9,0.6-5.7,1.7-8.3c1.1-2.6,2.6-4.6,4.6-5.9
		C592.4,326.3,594.5,325.6,596.9,325.6z M602.3,334.9c0-1.8-0.5-3.2-1.4-4.3c-1-1.1-2.3-1.7-3.9-1.7c-1.7,0-3.2,0.6-4.5,1.7
		c-1.3,1.1-2.4,2.7-3.1,4.8c-0.7,2-1.1,4.3-1.1,6.8c0,2,0.5,3.6,1.5,4.7c1,1.1,2.4,1.7,4.2,1.7c1.6,0,3-0.6,4.3-1.7
		c1.3-1.1,2.3-2.7,3-4.8C602,339.9,602.3,337.5,602.3,334.9z"/>
	<path class="st1" d="M634,351.3h-16.6l0.5-2.7l16-19.7h-11.1l0.6-2.9h15.2l-0.7,3.2l-15.7,19.2h12.3L634,351.3z"/>
	<path class="st1" d="M653.8,351.3h-3.9l5.4-25.3h3.9L653.8,351.3z M656.4,319.5c0-0.9,0.2-1.6,0.7-2.1c0.5-0.5,1.1-0.8,1.9-0.8
		c1.4,0,2,0.7,2,2.1c0,0.8-0.3,1.6-0.8,2.1c-0.5,0.6-1.1,0.9-1.8,0.9c-0.6,0-1.1-0.2-1.5-0.6C656.6,320.7,656.4,320.2,656.4,319.5z"
		/>
	<path class="st1" d="M699.4,338.4l12.2-12.4h4.6l-10.8,10.8l6.8,14.5h-4.3l-5.4-12.1l-3.5,2.8l-1.9,9.3h-3.9l7.6-36h3.9
		c-1.1,5.2-2.1,9.8-3,13.9C700.8,333.3,700,336.4,699.4,338.4L699.4,338.4z"/>
	<path class="st1" d="M729.6,351.3h-3.9l5.4-25.3h3.9L729.6,351.3z M732.2,319.5c0-0.9,0.2-1.6,0.7-2.1c0.5-0.5,1.1-0.8,1.9-0.8
		c1.4,0,2,0.7,2,2.1c0,0.8-0.3,1.6-0.8,2.1c-0.5,0.6-1.1,0.9-1.8,0.9c-0.6,0-1.1-0.2-1.5-0.6C732.4,320.7,732.2,320.2,732.2,319.5z"
		/>
	<path class="st1" d="M756.2,326l-3.5,16.1c-0.3,1.4-0.4,2.4-0.4,3.2c0,2.2,1.1,3.3,3.4,3.3c1.4,0,2.7-0.5,4-1.4
		c1.3-0.9,2.5-2.3,3.5-4c1-1.7,1.8-3.8,2.3-6.2l2.3-11h3.8l-5.3,25.3h-3.2l0.5-4.7h-0.3c-1.5,1.9-2.9,3.3-4.3,4
		c-1.4,0.8-2.8,1.1-4.3,1.1c-2,0-3.5-0.5-4.6-1.6c-1.1-1.1-1.7-2.6-1.7-4.6c0-1,0.2-2.3,0.5-4l3.4-15.6H756.2z"/>
	<path class="st1" d="M794.3,351.8c-3,0-5.3-0.8-7-2.5c-1.6-1.6-2.5-4-2.5-7c0-3.1,0.6-5.9,1.7-8.5c1.1-2.6,2.7-4.6,4.7-6.1
		c2-1.5,4.3-2.2,6.8-2.2c2.1,0,4.2,0.4,6.2,1.2l-1.1,3.3c-1.8-0.8-3.5-1.2-5.1-1.2c-1.7,0-3.3,0.6-4.7,1.8c-1.4,1.2-2.5,2.8-3.4,4.9
		s-1.2,4.4-1.2,6.9c0,2,0.5,3.5,1.5,4.6c1,1.1,2.4,1.6,4.2,1.6c1.1,0,2.2-0.2,3.1-0.5c1-0.3,2-0.7,2.9-1.1v3.3
		C798.8,351.3,796.6,351.8,794.3,351.8z"/>
	<path class="st1" d="M830.2,351.3l3.4-16c0.3-1.4,0.4-2.5,0.4-3.1c0-2.3-1.1-3.4-3.4-3.4c-1.4,0-2.7,0.5-4,1.4
		c-1.3,0.9-2.5,2.2-3.4,4c-1,1.7-1.7,3.8-2.3,6.3l-2.3,10.9h-3.9l7.6-36h3.9c-0.3,1.3-0.5,2.5-0.8,3.7s-0.5,2.4-0.8,3.6
		c-0.3,1.2-0.6,2.5-0.9,3.8c-0.3,1.3-0.7,2.8-1.1,4.4h0.3c1.4-1.9,2.9-3.3,4.3-4.1c1.4-0.8,2.9-1.2,4.4-1.2c2,0,3.6,0.6,4.7,1.7
		c1.1,1.1,1.7,2.7,1.7,4.7c0,1-0.2,2.2-0.5,3.8c-0.6,3-1.7,8.2-3.4,15.5H830.2z"/>
	<path class="st1" d="M860.6,326l-3.5,16.1c-0.3,1.4-0.4,2.4-0.4,3.2c0,2.2,1.1,3.3,3.4,3.3c1.4,0,2.7-0.5,4-1.4
		c1.3-0.9,2.5-2.3,3.5-4c1-1.7,1.8-3.8,2.3-6.2l2.3-11h3.8l-5.3,25.3h-3.2l0.5-4.7h-0.3c-1.5,1.9-2.9,3.3-4.3,4
		c-1.4,0.8-2.8,1.1-4.3,1.1c-2,0-3.5-0.5-4.6-1.6c-1.1-1.1-1.7-2.6-1.7-4.6c0-1,0.2-2.3,0.5-4l3.4-15.6H860.6z"/>
	<path class="st1" d="M903,351.3l3.4-16c0.3-1.4,0.4-2.5,0.4-3.1c0-1.1-0.2-1.9-0.7-2.5c-0.5-0.6-1.3-0.9-2.5-0.9
		c-1.3,0-2.6,0.5-3.8,1.4s-2.3,2.2-3.2,4c-0.9,1.7-1.7,3.8-2.2,6.2l-2.3,11h-3.9l5.4-25.3h3.2l-0.5,4.7h0.2c1.3-1.8,2.7-3.2,4-4
		c1.3-0.8,2.7-1.2,4.1-1.2c1.7,0,3.1,0.5,4,1.5c0.9,1,1.5,2.4,1.7,4.2h0.2c1.3-1.9,2.7-3.4,4.2-4.3c1.5-0.9,3-1.4,4.5-1.4
		c2,0,3.5,0.5,4.5,1.6c1.1,1,1.6,2.6,1.6,4.6c0,1-0.2,2.4-0.5,4.1l-3.3,15.5h-3.9l3.4-16c0.3-1.6,0.5-2.7,0.5-3.4
		c0-1-0.3-1.7-0.8-2.3c-0.5-0.6-1.4-0.9-2.5-0.9c-1.2,0-2.5,0.4-3.7,1.3c-1.2,0.9-2.3,2.2-3.2,3.8c-0.9,1.6-1.6,3.6-2.1,5.8
		l-2.5,11.6H903z"/>
	<path class="st1" d="M943,351.3h-3.9l5.4-25.3h3.9L943,351.3z M945.6,319.5c0-0.9,0.2-1.6,0.7-2.1c0.5-0.5,1.1-0.8,1.9-0.8
		c1.4,0,2,0.7,2,2.1c0,0.8-0.3,1.6-0.8,2.1c-0.5,0.6-1.1,0.9-1.8,0.9c-0.6,0-1.1-0.2-1.5-0.6C945.8,320.7,945.6,320.2,945.6,319.5z"
		/>
	<path class="st1" d="M960.2,349.5c0-1.2,0.3-2.1,0.9-2.8c0.6-0.7,1.4-1,2.5-1c0.7,0,1.3,0.2,1.7,0.6c0.4,0.4,0.6,1.1,0.6,1.9
		c0,1-0.3,1.9-0.9,2.7c-0.6,0.7-1.4,1.1-2.4,1.1c-0.8,0-1.3-0.2-1.8-0.6C960.4,350.9,960.2,350.3,960.2,349.5z M972,317.5l-6.3,24.5
		h-2.5c0.8-4.7,2.1-12.9,4.1-24.5H972z"/>
</g>
</svg>
