<?xml version="1.0" encoding="utf-8"?>
<!-- Generator: Adobe Illustrator 25.0.0, SVG Export Plug-In . SVG Version: 6.00 Build 0)  -->
<svg version="1.1" id="Layer_1" xmlns="http://www.w3.org/2000/svg" xmlns:xlink="http://www.w3.org/1999/xlink" x="0px" y="0px"
	 viewBox="0 0 1000 341.7" style="enable-background:new 0 0 1000 341.7;" xml:space="preserve">
<style type="text/css">
	.st0{fill:#367280;}
	.st1{fill:#219EBC;}
</style>
<g>
	<g>
		<path class="st0" d="M22.6,134.9c-2.2-6.9,1.7-14.2,8.6-16.4c6.9-2.2,14.2,1.7,16.4,8.6c5.4,17.4,18.3,25.2,37,25.2
			c31,0,38.3-23.5,38.3-37.2V30.9c0-7.1,5.8-12.9,13.1-12.9c7.1,0,12.9,5.8,12.9,12.9v84.2c0,33.6-23.9,63.3-64.4,63.3
			C53.6,178.4,31.4,162.9,22.6,134.9z"/>
		<path class="st0" d="M198.4,162V31.1c0-7.1,5.8-12.9,12.9-12.9c7.1,0,13.1,5.8,13.1,12.9V162c0,7.1-6,12.9-13.1,12.9
			C204.3,174.9,198.4,169.1,198.4,162z"/>
		<path class="st0" d="M274,161.6v-130c0-5.6,3.4-10.5,8.6-12.5c5.2-2.2,11-0.6,14.6,3.4l56.4,61.3l56.2-61.3
			c3.7-4.1,9.5-5.6,14.6-3.4c5.2,1.9,8.6,6.9,8.6,12.5v130c0,7.3-6,13.3-13.3,13.3c-7.5,0-13.3-6-13.3-13.3v-96l-42.8,47.1
			c-2.6,2.8-6.2,4.5-9.9,4.5c-3.9,0-7.5-1.7-9.9-4.5l-43-47.1v96c0,7.3-5.8,13.3-13.3,13.3C280,174.9,274,168.9,274,161.6z"/>
		<path class="st0" d="M482.6,115.1V30.9c0-7.1,5.8-12.9,12.9-12.9c7.1,0,13.1,5.8,13.1,12.9v83.9c0,11.8,6.2,37.5,39.2,37.5
			c31,0,38.3-23.5,38.3-37.2V30.9c0-7.1,6-12.9,13.1-12.9s12.9,5.8,12.9,12.9v84.2c0,29.7-20.4,63.3-64.4,63.3
			C499.8,178.4,482.6,140.5,482.6,115.1z"/>
		<path class="st0" d="M661.6,162V31.1c0-7.1,5.8-12.9,13.1-12.9h57.7c29.1,0,72.3,20.4,72.3,77.9c0,44.6-29.5,78.8-72.3,78.8h-57.7
			C667.4,174.9,661.6,169.1,661.6,162z M732.4,148.9c29.1,0,46.3-22.8,46.3-52.7c0-42-30.8-51.9-46.3-51.9h-44.8v104.6H732.4z"/>
		<path class="st0" d="M847.8,115.1V30.9c0-7.1,5.8-12.9,12.9-12.9c7.1,0,13.1,5.8,13.1,12.9v83.9c0,11.8,6.2,37.5,39.2,37.5
			c31,0,38.3-23.5,38.3-37.2V30.9c0-7.1,6-12.9,13.1-12.9s12.9,5.8,12.9,12.9v84.2c0,29.7-20.4,63.3-64.4,63.3
			C865,178.4,847.8,140.5,847.8,115.1z"/>
	</g>
	<g>
		<path class="st1" d="M75.6,324.3l-6-46.6h-0.3c-0.2,1.7-0.5,4.1-1,7.1c-0.5,3-1,5.4-1.3,7.2l-6.8,32.4h-5.8l11.1-52.6h8.8
			l5.4,43.3h0.3l23.7-43.3h9.6l-10.9,52.6H96c3-14.2,5.3-25,6.9-32.6c1.6-7.6,2.7-12.3,3.4-14.1h-0.2l-25.8,46.7H75.6z"/>
		<path class="st1" d="M139.5,304.2l18.9-19.3h7.2l-16.9,16.8l10.6,22.6h-6.7l-8.5-18.9l-5.5,4.4l-3,14.4h-6.1l11.9-56h6.1
			c-1.7,8.1-3.3,15.3-4.6,21.7c-1.4,6.4-2.6,11.1-3.7,14.2H139.5z"/>
		<path class="st1" d="M201.5,284.3c4.6,0,8.2,1.3,10.8,4s4,6.4,4,11.1c0,4.5-0.9,8.8-2.6,12.8c-1.7,4-4.1,7.1-7,9.3
			c-3,2.2-6.3,3.3-10,3.3c-4.6,0-8.2-1.4-10.8-4.1s-3.9-6.4-3.9-11.1c0-4.6,0.9-8.8,2.6-12.9c1.8-4,4.1-7.1,7.1-9.2
			C194.6,285.4,197.9,284.3,201.5,284.3z M210,298.7c0-2.8-0.8-5-2.2-6.7c-1.5-1.7-3.5-2.6-6.1-2.6c-2.6,0-5,0.9-7,2.7
			s-3.7,4.2-4.8,7.4c-1.1,3.2-1.7,6.7-1.7,10.5c0,3.1,0.8,5.6,2.3,7.3c1.5,1.7,3.7,2.6,6.6,2.6c2.5,0,4.7-0.9,6.7-2.6
			c2-1.8,3.5-4.2,4.7-7.5C209.4,306.5,210,302.8,210,298.7z"/>
		<path class="st1" d="M259.5,324.3l5.3-24.9c0.4-2.3,0.6-3.9,0.6-4.9c0-1.7-0.4-3-1.1-3.9c-0.7-0.9-2-1.4-3.8-1.4
			c-2,0-4,0.7-5.9,2.2s-3.6,3.5-5,6.2c-1.5,2.7-2.6,5.9-3.4,9.7l-3.6,17.1h-6l8.4-39.4h5l-0.8,7.3h0.4c2.1-2.9,4.2-4.9,6.2-6.2
			c2.1-1.2,4.2-1.9,6.4-1.9c2.7,0,4.8,0.8,6.3,2.3c1.5,1.6,2.3,3.7,2.6,6.5h0.3c2.1-3,4.3-5.2,6.6-6.7c2.3-1.5,4.7-2.2,7.1-2.2
			c3,0,5.4,0.8,7.1,2.4c1.7,1.6,2.5,4,2.5,7.1c0,1.6-0.3,3.8-0.8,6.4l-5.2,24.2h-6.1l5.3-24.9c0.5-2.5,0.7-4.2,0.7-5.3
			c0-1.5-0.4-2.7-1.2-3.6c-0.8-0.9-2.1-1.3-3.9-1.3c-1.9,0-3.9,0.7-5.8,2.1c-1.9,1.4-3.6,3.4-5,5.9c-1.4,2.6-2.5,5.6-3.3,9.1
			l-3.9,18H259.5z"/>
		<path class="st1" d="M333.1,325c-2.3,0-4.4-0.6-6.1-1.8c-1.8-1.2-3.1-2.9-4-5h-0.4l-2.5,6.1h-4.5l11.9-56h6
			c-1.2,5.8-2.2,10.3-2.8,13.3c-0.7,3.1-1.6,6.7-2.7,10.8h0.3c2.2-2.8,4.4-4.9,6.6-6.2c2.2-1.3,4.4-2,6.7-2c3.4,0,6,1.2,7.9,3.6
			c1.9,2.4,2.8,5.6,2.8,9.8c0,5-0.8,9.7-2.5,13.9c-1.6,4.3-3.9,7.6-6.9,10C340.1,323.8,336.8,325,333.1,325z M339.8,289.2
			c-2.3,0-4.6,1.1-7,3.4c-2.4,2.3-4.3,5.1-5.7,8.6c-1.4,3.5-2.1,7-2.1,10.6c0,2.6,0.7,4.7,2,6.1c1.3,1.4,3.3,2.1,5.8,2.1
			c2.4,0,4.6-1,6.6-2.9c2.1-1.9,3.7-4.7,4.9-8.3c1.2-3.6,1.9-7.4,1.9-11.4C346.2,291.9,344,289.2,339.8,289.2z"/>
		<path class="st1" d="M393.9,284.3c4.6,0,8.2,1.3,10.8,4c2.6,2.7,4,6.4,4,11.1c0,4.5-0.9,8.8-2.6,12.8c-1.7,4-4.1,7.1-7,9.3
			c-3,2.2-6.3,3.3-10,3.3c-4.6,0-8.2-1.4-10.8-4.1c-2.6-2.7-3.9-6.4-3.9-11.1c0-4.6,0.9-8.8,2.6-12.9c1.8-4,4.1-7.1,7.1-9.2
			C387,285.4,390.3,284.3,393.9,284.3z M402.4,298.7c0-2.8-0.7-5-2.2-6.7c-1.5-1.7-3.5-2.6-6.1-2.6c-2.6,0-5,0.9-7,2.7
			c-2.1,1.8-3.7,4.2-4.8,7.4c-1.1,3.2-1.7,6.7-1.7,10.5c0,3.1,0.8,5.6,2.3,7.3c1.5,1.7,3.7,2.6,6.6,2.6c2.5,0,4.7-0.9,6.7-2.6
			c2-1.8,3.5-4.2,4.7-7.5S402.4,302.8,402.4,298.7z"/>
		<path class="st1" d="M451.7,324.3h-25.9l0.8-4.2l25-30.7h-17.2l1-4.5H459l-1,5l-24.5,29.9h19.1L451.7,324.3z"/>
		<path class="st1" d="M482.5,324.3h-6l8.4-39.4h6L482.5,324.3z M486.5,274.8c0-1.3,0.4-2.4,1.2-3.3c0.8-0.9,1.8-1.3,3-1.3
			c2.1,0,3.2,1.1,3.2,3.2c0,1.3-0.4,2.4-1.2,3.3c-0.8,0.9-1.7,1.4-2.8,1.4c-1,0-1.7-0.3-2.4-0.9
			C486.8,276.7,486.5,275.8,486.5,274.8z"/>
		<path class="st1" d="M553.5,304.2l18.9-19.3h7.2l-16.9,16.8l10.6,22.6h-6.7l-8.5-18.9l-5.5,4.4l-3,14.4h-6.1l11.9-56h6.1
			c-1.7,8.1-3.3,15.3-4.6,21.7c-1.4,6.4-2.6,11.1-3.7,14.2H553.5z"/>
		<path class="st1" d="M600.5,324.3h-6l8.4-39.4h6L600.5,324.3z M604.6,274.8c0-1.3,0.4-2.4,1.2-3.3c0.8-0.9,1.8-1.3,3-1.3
			c2.1,0,3.2,1.1,3.2,3.2c0,1.3-0.4,2.4-1.2,3.3c-0.8,0.9-1.7,1.4-2.8,1.4c-1,0-1.7-0.3-2.4-0.9
			C604.9,276.7,604.6,275.8,604.6,274.8z"/>
		<path class="st1" d="M642,284.8l-5.4,25c-0.4,2.1-0.6,3.8-0.6,5c0,3.4,1.8,5.1,5.3,5.1c2.1,0,4.2-0.7,6.2-2.2
			c2-1.4,3.8-3.5,5.4-6.2c1.6-2.7,2.7-5.9,3.6-9.7l3.6-17.1h6l-8.3,39.4h-5l0.8-7.3h-0.4c-2.4,3-4.6,5.1-6.7,6.3
			c-2.1,1.2-4.3,1.8-6.6,1.8c-3.1,0-5.5-0.8-7.2-2.5c-1.7-1.7-2.6-4-2.6-7.1c0-1.5,0.3-3.6,0.8-6.2l5.3-24.3H642z"/>
		<path class="st1" d="M701.3,325c-4.7,0-8.3-1.3-10.8-3.9c-2.6-2.6-3.9-6.2-3.9-10.9c0-4.8,0.9-9.2,2.7-13.3
			c1.8-4.1,4.2-7.2,7.4-9.5c3.1-2.3,6.7-3.4,10.6-3.4c3.3,0,6.5,0.6,9.6,1.8l-1.7,5.1c-2.9-1.2-5.5-1.8-7.9-1.8
			c-2.7,0-5.1,0.9-7.4,2.8c-2.2,1.8-4,4.4-5.2,7.7c-1.3,3.3-1.9,6.8-1.9,10.7c0,3.1,0.8,5.5,2.4,7.2c1.6,1.7,3.8,2.6,6.6,2.6
			c1.7,0,3.4-0.2,4.9-0.7c1.5-0.5,3-1,4.5-1.7v5.1C708.2,324.2,704.9,325,701.3,325z"/>
		<path class="st1" d="M757.2,324.3l5.3-24.9c0.4-2.3,0.6-3.9,0.6-4.9c0-3.6-1.8-5.3-5.3-5.3c-2.1,0-4.2,0.7-6.2,2.1
			c-2,1.4-3.8,3.5-5.4,6.2s-2.7,6-3.5,9.8l-3.6,17h-6l11.9-56h6c-0.4,2-0.8,3.9-1.2,5.7s-0.8,3.7-1.2,5.6c-0.4,1.9-0.9,3.9-1.4,6
			c-0.5,2.1-1.1,4.4-1.7,6.8h0.4c2.3-3,4.5-5.1,6.7-6.3c2.2-1.3,4.5-1.9,6.9-1.9c3.1,0,5.6,0.9,7.3,2.6c1.7,1.7,2.6,4.2,2.6,7.3
			c0,1.5-0.3,3.5-0.8,6c-0.9,4.6-2.7,12.7-5.2,24.2H757.2z"/>
		<path class="st1" d="M804.5,284.8l-5.4,25c-0.4,2.1-0.6,3.8-0.6,5c0,3.4,1.8,5.1,5.3,5.1c2.1,0,4.2-0.7,6.2-2.2
			c2-1.4,3.8-3.5,5.4-6.2c1.6-2.7,2.7-5.9,3.6-9.7l3.6-17.1h6l-8.3,39.4h-5l0.8-7.3h-0.4c-2.4,3-4.6,5.1-6.7,6.3
			c-2.1,1.2-4.3,1.8-6.6,1.8c-3.1,0-5.5-0.8-7.2-2.5c-1.7-1.7-2.6-4-2.6-7.1c0-1.5,0.3-3.6,0.8-6.2l5.3-24.3H804.5z"/>
		<path class="st1" d="M870.6,324.3l5.3-24.9c0.4-2.3,0.6-3.9,0.6-4.9c0-1.7-0.4-3-1.1-3.9c-0.7-0.9-2-1.4-3.8-1.4
			c-2,0-4,0.7-5.9,2.2s-3.6,3.5-5,6.2c-1.5,2.7-2.6,5.9-3.4,9.7l-3.6,17.1h-6l8.4-39.4h5l-0.8,7.3h0.4c2.1-2.9,4.2-4.9,6.2-6.2
			c2.1-1.2,4.2-1.9,6.4-1.9c2.7,0,4.8,0.8,6.3,2.3c1.5,1.6,2.3,3.7,2.6,6.5h0.3c2.1-3,4.3-5.2,6.6-6.7c2.3-1.5,4.7-2.2,7.1-2.2
			c3,0,5.4,0.8,7.1,2.4c1.7,1.6,2.5,4,2.5,7.1c0,1.6-0.3,3.8-0.8,6.4l-5.2,24.2h-6.1l5.3-24.9c0.5-2.5,0.7-4.2,0.7-5.3
			c0-1.5-0.4-2.7-1.2-3.6c-0.8-0.9-2.1-1.3-3.9-1.3c-1.9,0-3.9,0.7-5.8,2.1c-1.9,1.4-3.6,3.4-5,5.9c-1.4,2.6-2.5,5.6-3.3,9.1
			l-3.9,18H870.6z"/>
		<path class="st1" d="M932.7,324.3h-6l8.4-39.4h6L932.7,324.3z M936.8,274.8c0-1.3,0.4-2.4,1.2-3.3c0.8-0.9,1.8-1.3,3-1.3
			c2.1,0,3.2,1.1,3.2,3.2c0,1.3-0.4,2.4-1.2,3.3c-0.8,0.9-1.7,1.4-2.8,1.4c-1,0-1.7-0.3-2.4-0.9
			C937.1,276.7,936.8,275.8,936.8,274.8z"/>
		<path class="st1" d="M959.6,321.5c0-1.8,0.5-3.3,1.4-4.3c1-1.1,2.2-1.6,3.9-1.6c1.1,0,2,0.3,2.6,1c0.7,0.7,1,1.6,1,2.9
			c0,1.6-0.5,3-1.4,4.1s-2.2,1.7-3.8,1.7c-1.2,0-2.1-0.3-2.8-1C959.9,323.6,959.6,322.7,959.6,321.5z M978,271.7l-9.9,38.1h-3.9
			c1.2-7.4,3.3-20.1,6.3-38.1H978z"/>
	</g>
</g>
</svg>
