<?xml version="1.0" encoding="utf-8"?>
<!-- Generator: Adobe Illustrator 25.0.0, SVG Export Plug-In . SVG Version: 6.00 Build 0)  -->
<svg version="1.1" id="Layer_1" xmlns="http://www.w3.org/2000/svg" xmlns:xlink="http://www.w3.org/1999/xlink" x="0px" y="0px"
	 viewBox="0 0 1000 1000" style="enable-background:new 0 0 1000 1000;" xml:space="preserve">
<style type="text/css">
	.st0{fill:#367280;}
	.st1{fill:#219EBC;}
	.st2{fill:#A4D4DF;}
	.st3{fill:#BEE6F0;}
</style>
<g>
	<g>
		<g>
			<g>
				<path class="st0" d="M869.8,766.4h-17c-0.5-1.4-1.4-2.9-1.9-4.3l11.8-11.8c3.8-3.8,3.8-9.5,0-13.2l-32.6-32.6
					c-3.8-3.8-9.5-3.8-13.2,0l-11.8,11.8c-1.4-1-2.9-1.4-4.3-1.9v-17c0-5.2-4.3-9.5-9.5-9.5h-46.3c-5.2,0-9.5,4.3-9.5,9.5v17
					c-1.4,0.5-2.9,1.4-4.3,1.9l-11.8-11.8c-3.8-3.8-9.5-3.8-13.2,0L673.7,737c-1.9,1.9-2.9,4.3-2.9,6.6s1,4.7,2.9,6.6l11.8,11.8
					c-1,1.4-1.4,2.9-1.9,4.3h-17c-5.2,0-9.5,4.3-9.5,9.5v46.3c0,5.2,4.3,9.5,9.5,9.5h17c0.5,1.4,1.4,2.9,1.9,4.3l-11.8,11.8
					c-1.9,1.9-2.9,4.3-2.9,6.6c0,2.4,1,4.7,2.9,6.6l32.6,32.6c3.8,3.8,9.5,3.8,13.2,0l11.8-11.8c1.4,1,2.9,1.4,4.3,1.9v17
					c0,5.2,4.3,9.5,9.5,9.5h46.3c5.2,0,9.5-4.3,9.5-9.5v-17c1.4-0.5,2.9-1.4,4.3-1.9l11.8,11.8c3.8,3.8,9.5,3.8,13.2,0l32.6-32.6
					c3.8-3.8,3.8-9.5,0-13.2L851,835.9c1-1.4,1.4-2.9,1.9-4.3h17c5.2,0,9.5-4.3,9.5-9.5v-46.4C879.3,770.6,875,766.4,869.8,766.4z
					 M860.4,812.6h-14.2c-4.3,0-7.6,2.9-9,6.6c-1.4,4.7-3.3,9.5-5.7,13.7c-2.4,3.8-1.4,8.5,1.4,11.3l9.9,9.9l-19.4,19.4l-9.9-9.9
					c-3.3-2.9-7.6-3.3-11.3-1.4c-4.3,2.4-9,4.3-13.7,5.7c-3.8,1-6.6,4.7-6.6,9v14.2h-27.4l0,0v-14.2c0-4.3-2.9-7.6-6.6-9
					c-4.7-1.4-9.5-3.3-13.7-5.7c-3.8-2.4-8.5-1.4-11.3,1.4l-10,9.9l-19.4-19.4l9.9-9.9c2.9-3.3,3.3-7.6,1.4-11.3
					c-2.4-4.3-4.3-9-5.7-13.7c-1-3.8-4.7-6.6-9-6.6h-14.2v-27.4h14.2c4.3,0,7.6-2.9,9-6.6c1.4-4.7,3.3-9.5,5.7-13.7
					c2.4-3.8,1.4-8.5-1.4-11.3l-9.9-10l19.4-19.4l9.9,9.9c3.3,2.9,7.6,3.3,11.3,1.4c4.3-2.4,9-4.3,13.7-5.7c3.8-1,6.6-4.7,6.6-9
					v-14.2h27.4V721c0,4.3,2.9,7.6,6.6,9c4.7,1.4,9.5,3.3,13.7,5.7c3.8,2.4,8.5,1.4,11.3-1.4l10-9.9l19.4,19.4l-9.9,9.9
					c-2.9,3.3-3.3,7.6-1.4,11.3c2.4,4.3,4.3,9,5.7,13.7c1,3.8,4.7,6.6,9,6.6h14.2L860.4,812.6L860.4,812.6z"/>
				<path class="st0" d="M768.2,747.5c-28.4,0-51.5,23.2-51.5,51.5c0,28.3,23.1,51.5,51.5,51.5s51.5-23.1,51.5-51.5
					S796.6,747.5,768.2,747.5z M768.2,831.6c-17.9,0-32.6-14.6-32.6-32.6s14.6-32.6,32.6-32.6c17.9,0,32.6,14.6,32.6,32.6
					C800.8,816.9,786.2,831.6,768.2,831.6z"/>
			</g>
		</g>
	</g>
	<path class="st0" d="M545.5,742.2c-22.3,78.4-78.4,203.6-212.1,228c-22.7-5-43.3-11.9-62-20.7c-43-20.3-77.8-53.2-104.1-98.6
		c-13.8-24.2-25.1-52.1-33.7-83.7c-8.7-31.6-13-61.6-13-90.2c0-30.3,8.4-53.4,25.3-69.4c16.9-16,38.5-24,64.9-24
		c25.5,0,44.8,7.4,57.7,22.1c13,14.7,22.9,37.6,29.8,68.8c7.3,33.3,14.7,59.9,22.1,79.8c7.4,19.9,19.7,37,37,51.3
		c17.3,14.3,42,21.4,74,21.4C488.7,826.9,526.7,798.7,545.5,742.2z"/>
	<polygon class="st1" points="620.4,270.6 620.4,341.7 575.4,341.5 	"/>
	<path class="st1" d="M767.5,666.3c0.5-14.1,0.8-29.1,0.8-44.9l0-350.8h-142v78.7l-50.9-0.2l0.2,300.2c0,25.6-1.8,48.6-5.3,68.9
		c-2.1,12.1-4.9,23.4-8.3,33.6c0,0.1-0.1,0.2-0.1,0.3c-22.3,78.4-78.4,203.6-212.1,228c29.6,6.5,62.8,9.8,99.3,9.8
		c71.4,0,131.9-14.6,181.7-43.8c20.7-12.2,39-26.4,54.8-42.5c-30.7-24.4-50.3-62-50.3-104.2C635.2,726.1,694.4,666.7,767.5,666.3z
		 M601.6,575.6l10-39.1c14,7.7,33.7,14.7,55.4,14.7c19,0,32-7.3,32-20.7c0-12.7-10.7-20.7-35.4-29.1c-35.7-12-60.1-28.7-60.1-61.1
		c0-29.4,20.7-52.4,56.4-59.4v-31.7h32.7v29.4c22.4,1,37.4,5.7,48.4,11l-9.7,37.7c-8.7-3.7-24-11.4-48.1-11.4
		c-21.7,0-28.7,9.3-28.7,18.7c0,11,11.7,18,40.1,28.7c39.7,14,55.7,32.4,55.7,62.4c0,29.7-21,55.1-59.4,61.8v34h-32.7V590
		C636,589,614.3,583,601.6,575.6z"/>
	<g>
		<path class="st0" d="M672.3,10.1c-52.9,0-95.7,42.9-95.7,95.7c0,52.9,42.9,95.7,95.7,95.7c52.9,0,95.7-42.9,95.7-95.7
			C768.1,52.9,725.2,10.1,672.3,10.1z"/>
		<path class="st2" d="M738.6,110.3c9-3.1,18.8-5.1,29.5-6.1c0-1.7-0.1-3.4-0.2-5.1c-11.4,1-21.5,3.2-30.4,6.2
			c-2.4-10.3-5.5-19.5-9.1-27.7c9.5-4,19.3-8.8,29.6-14.8c-0.8-1.5-1.6-3-2.4-4.5c-10.1,5.9-19.9,10.7-29.3,14.6
			c-7-14.7-15.5-25.9-23.7-34.3c-2.5-2.5-5-4.9-7.4-7.1c9.3-2.6,19.2-4.5,29.8-5.8c-2.3-1.5-4.6-2.9-7.1-4.2
			c-8.3,1.3-16.1,2.9-23.3,4.9c1.7-4.9,3.5-9.2,4.9-12.5c-1.7-0.5-3.4-0.9-5.1-1.4c-1.6,3.7-3.6,8.4-5.4,13.9
			c-10.3-7.9-20.1-12.8-27.4-15.8c-3.5,0.4-7,1-10.4,1.8c5.6,1.7,18.9,6.4,33.3,17.1c-19.5,6.7-34.8,16-46.8,26.3
			C630.1,41.2,622,31,618.4,26.7c-1.4,1-2.8,2-4.2,3c3.4,3.9,11.8,14.5,19.4,29.7c-7.3,6.9-13.3,14.1-18.2,21.3
			c-13.4-4.4-23.6-10.1-30.2-14.5c-0.7,1.6-1.4,3.2-2,4.9c6.7,4.3,16.5,9.8,29.4,14.1c-3,4.8-5.5,9.6-7.7,14.2
			c-2.7,5.8-4.9,11.6-6.7,17.2c-10.2-16.4-15.5-31.2-17.6-37.8c-0.9,3.1-1.6,6.2-2.2,9.3c3.3,8.7,8.9,21.4,17.9,34.9
			c-3.6,13.2-4.9,24.9-5.4,32.8c1.5,2.5,3.2,4.9,4.9,7.3c0-5.8,0.5-18.8,4.3-34.5c1.6,2.3,3.4,4.5,5.2,6.8c8.2,10.1,19.1,20.9,33,30
			c-3.4,8-7.7,15.9-12.9,23.7c1.5,0.8,3,1.6,4.6,2.4c5.2-7.9,9.4-15.7,12.7-23.4c8.1,4.9,17.2,9.2,27.3,12.6
			c-2.2,8.6-3.2,15.9-3.6,20.6c1.7,0.1,3.4,0.2,5.2,0.2c0.4-4.4,1.4-11.2,3.4-19.2c13.1,3.8,27.8,6.1,44.3,6.1c0.5,0,1.1,0,1.6,0
			c2.8-1.7,5.6-3.5,8.2-5.4c-19,1-36.7-0.8-52.8-5.5c1.8-6,4.2-12.6,7.6-19.2c5.2-10.4,11.7-19.3,19.4-26.8
			c8.9,10,20.4,18.6,34.4,25.6c-0.1,6.4-0.4,12.9-1,19.6c1.9-1.7,3.8-3.6,5.6-5.5c0.3-4,0.4-7.9,0.5-11.7c2.2,1,4.5,2,6.8,2.9
			c1-1.4,2-2.9,3-4.3c-3.4-1.3-6.6-2.8-9.7-4.2C742.7,137.7,741.2,123.2,738.6,110.3z M691.7,35.4c2.4,2.1,4.8,4.3,7.2,6.8
			c9.1,9.4,16.7,20.3,22.6,32.6c-12.1,4.7-23.6,7.9-34.2,9.9C684.8,66.8,687.7,49.3,691.7,35.4z M686.5,34.1
			c-4.1,14.5-7.1,32.7-4.4,51.4c-12,1.9-23,2.2-32.8,1.6c-1-3.9-2-7.6-3.2-11c-1.9-5.6-4.1-10.9-6.3-15.7
			C652.7,49,668.4,40.2,686.5,34.1z M635.8,64.1c1.9,4.3,3.8,8.8,5.4,13.7c1,3,1.9,6,2.7,8.9c-6.8-0.7-13.1-1.8-18.6-3.1
			c-1.7-0.4-3.3-0.8-4.9-1.3C625,75.7,630.1,69.6,635.8,64.1z M640.1,160.8c-11.3-7.6-21.6-17.1-30.8-28.4
			c-2.7-3.4-5.3-6.8-7.6-10.2c1.9-6.7,4.4-13.7,7.8-20.8c2.4-5.1,5.1-10,8-14.6c2.1,0.6,4.2,1.2,6.3,1.7c6.3,1.5,13.5,2.8,21.4,3.5
			C650.4,115.5,648.7,138.5,640.1,160.8z M679,156.2c-3.4,6.8-5.9,13.6-7.8,19.8c-9.4-3.1-18.4-7.3-26.8-12.4
			c10.4-26.8,10.1-51.3,6-71.3c2.5,0.1,5,0.2,7.6,0.2c7.7,0,16-0.6,24.8-1.9c0.9,4.6,2.2,9.2,3.8,13.8c3.1,8.5,7.5,16.2,13.1,23.3
			C690.3,136.9,683.7,147,679,156.2z M703.7,124.3c-5.2-6.6-9.2-13.8-12.1-21.6c-1.6-4.3-2.8-8.6-3.6-12.9
			c11.1-2.1,23-5.3,35.6-10.3c3.8,8.6,6.8,17.8,9,27.6C721,111.6,711.5,117.6,703.7,124.3z M706.9,128.1c7.8-6.7,16.7-12.1,26.8-16
			c2.4,12.3,3.7,25.4,3.9,39.4C725.1,144.9,714.9,137.1,706.9,128.1z"/>
		<g>
			<path class="st3" d="M735.4,101.1c-4.1,0-7.5,3.4-7.5,7.5c0,4.1,3.4,7.5,7.5,7.5c4.1,0,7.5-3.4,7.5-7.5
				C742.9,104.5,739.6,101.1,735.4,101.1z"/>
			<path class="st3" d="M703.1,120c-4.1,0-7.5,3.4-7.5,7.5c0,4.1,3.4,7.5,7.5,7.5c4.1,0,7.5-3.4,7.5-7.5
				C710.6,123.3,707.3,120,703.1,120z"/>
			<path class="st3" d="M672.8,172.2c-4.1,0-7.5,3.4-7.5,7.5c0,4.1,3.4,7.5,7.5,7.5s7.5-3.4,7.5-7.5
				C680.3,175.5,676.9,172.2,672.8,172.2z"/>
			<path class="st3" d="M641.3,156.8c-4.1,0-7.5,3.4-7.5,7.5c0,4.1,3.4,7.5,7.5,7.5c4.1,0,7.5-3.4,7.5-7.5
				C648.8,160.1,645.5,156.8,641.3,156.8z"/>
			<path class="st3" d="M598.8,115c-4.1,0-7.5,3.4-7.5,7.5c0,4.1,3.4,7.5,7.5,7.5c4.1,0,7.5-3.4,7.5-7.5
				C606.2,118.4,602.9,115,598.8,115z"/>
			<path class="st3" d="M616.5,76.1c-4.1,0-7.5,3.4-7.5,7.5c0,4.1,3.4,7.5,7.5,7.5c4.1,0,7.5-3.4,7.5-7.5
				C624,79.5,620.6,76.1,616.5,76.1z"/>
			<path class="st3" d="M647.7,82.3c-4.1,0-7.5,3.4-7.5,7.5c0,4.1,3.4,7.5,7.5,7.5c4.1,0,7.5-3.4,7.5-7.5
				C655.2,85.7,651.9,82.3,647.7,82.3z"/>
			<path class="st3" d="M636.4,51.9c-4.1,0-7.5,3.4-7.5,7.5s3.4,7.5,7.5,7.5c4.1,0,7.5-3.4,7.5-7.5S640.5,51.9,636.4,51.9z"/>
			<path class="st3" d="M690.5,20.3c-5.2,0-9.4,4.2-9.4,9.4c0,5.2,4.2,9.4,9.4,9.4c5.2,0,9.4-4.2,9.4-9.4
				C699.9,24.5,695.7,20.3,690.5,20.3z"/>
			<path class="st3" d="M685,80.6c-4.1,0-7.5,3.4-7.5,7.5c0,4.1,3.4,7.5,7.5,7.5c4.1,0,7.5-3.4,7.5-7.5
				C692.4,84,689.1,80.6,685,80.6z"/>
			<path class="st3" d="M725.4,68.6c-4.1,0-7.5,3.4-7.5,7.5c0,4.1,3.4,7.5,7.5,7.5c4.1,0,7.5-3.4,7.5-7.5
				C732.9,72,729.5,68.6,725.4,68.6z"/>
			<path class="st3" d="M739.9,147.3c-4.1,0-7.5,3.4-7.5,7.5c0,4.1,3.4,7.5,7.5,7.5c4.1,0,7.5-3.4,7.5-7.5
				C747.4,150.7,744.1,147.3,739.9,147.3z"/>
		</g>
	</g>
</g>
</svg>
