<?xml version="1.0" encoding="utf-8"?>
<!-- Generator: Adobe Illustrator 25.0.0, SVG Export Plug-In . SVG Version: 6.00 Build 0)  -->
<svg version="1.1" id="Layer_1" xmlns="http://www.w3.org/2000/svg" xmlns:xlink="http://www.w3.org/1999/xlink" x="0px" y="0px"
	 viewBox="0 0 1000 1000" style="enable-background:new 0 0 1000 1000;" xml:space="preserve">
<style type="text/css">
	.st0{fill:#104365;}
	.st1{fill:#2179B8;}
</style>
<g>
	<g>
		<g>
			<g>
				<path class="st0" d="M469.9,773.2h-17.4c-0.5-1.4-1.4-2.9-1.9-4.4l12.1-12.1c3.8-3.8,3.8-9.7,0-13.5l-33.3-33.3
					c-3.8-3.8-9.7-3.8-13.5,0L403.7,722c-1.4-1-2.9-1.4-4.4-1.9v-17.4c0-5.3-4.4-9.7-9.7-9.7h-47.3c-5.3,0-9.7,4.4-9.7,9.7v17.4
					c-1.4,0.5-2.9,1.4-4.4,1.9l-12.1-12.1c-3.8-3.8-9.7-3.8-13.5,0l-33.3,33.3c-1.9,1.9-2.9,4.4-2.9,6.8c0,2.4,1,4.8,2.9,6.8
					l12.1,12.1c-1,1.4-1.4,2.9-1.9,4.4h-17.3c-5.3,0-9.7,4.4-9.7,9.7v47.3c0,5.3,4.4,9.7,9.7,9.7h17.4c0.5,1.4,1.4,2.9,1.9,4.4
					l-12.1,12.1c-1.9,1.9-2.9,4.4-2.9,6.8s1,4.8,2.9,6.8l33.3,33.3c3.8,3.8,9.7,3.8,13.5,0l12.1-12.1c1.4,1,2.9,1.4,4.4,1.9v17.4
					c0,5.3,4.4,9.7,9.7,9.7h47.3c5.3,0,9.7-4.4,9.7-9.7v-17.4c1.4-0.5,2.9-1.4,4.4-1.9l12.1,12.1c3.8,3.8,9.7,3.8,13.5,0l33.3-33.3
					c3.8-3.8,3.8-9.7,0-13.5l-12.1-12.1c1-1.4,1.4-2.9,1.9-4.4h17.4c5.3,0,9.7-4.4,9.7-9.7v-47.4
					C479.5,777.5,475.2,773.2,469.9,773.2z M460.2,820.5h-14.5c-4.4,0-7.7,2.9-9.2,6.8c-1.4,4.8-3.4,9.7-5.8,14
					c-2.4,3.8-1.4,8.7,1.4,11.6l10.1,10.1l-19.8,19.8l-10.1-10.1c-3.4-2.9-7.7-3.4-11.6-1.4c-4.4,2.4-9.2,4.4-14,5.8
					c-3.8,1-6.8,4.8-6.8,9.2v14.5h-28l0,0v-14.5c0-4.4-2.9-7.7-6.8-9.2c-4.8-1.4-9.7-3.4-14-5.8c-3.8-2.4-8.7-1.4-11.6,1.4
					l-10.2,10.1L289.7,863l10.1-10.1c2.9-3.4,3.4-7.7,1.4-11.6c-2.4-4.4-4.4-9.2-5.8-14c-1-3.8-4.8-6.8-9.2-6.8h-14.5v-28h14.5
					c4.4,0,7.7-2.9,9.2-6.8c1.4-4.8,3.4-9.7,5.8-14c2.4-3.8,1.4-8.7-1.4-11.6L289.7,750l19.8-19.8l10.1,10.1
					c3.4,2.9,7.7,3.4,11.6,1.4c4.4-2.4,9.2-4.4,14-5.8c3.8-1,6.8-4.8,6.8-9.2v-14.5h28v14.5c0,4.4,2.9,7.7,6.8,9.2
					c4.8,1.4,9.7,3.4,14,5.8c3.8,2.4,8.7,1.4,11.6-1.4l10.2-10.1l19.8,19.8l-10.1,10.1c-2.9,3.4-3.4,7.7-1.4,11.6
					c2.4,4.4,4.4,9.2,5.8,14c1,3.8,4.8,6.8,9.2,6.8h14.5V820.5L460.2,820.5z"/>
				<path class="st0" d="M366,753.9c-29,0-52.6,23.7-52.6,52.6s23.6,52.6,52.6,52.6s52.6-23.6,52.6-52.6S395,753.9,366,753.9z
					 M366,839.8c-18.3,0-33.3-15-33.3-33.3c0-18.3,15-33.3,33.3-33.3s33.3,15,33.3,33.3S384.4,839.8,366,839.8z"/>
			</g>
		</g>
	</g>
	<polygon class="st1" points="517.3,259.8 517.3,332.5 563.2,332.4 	"/>
	<path class="st1" d="M739.7,966.3c-98.3-44-143.1-147.7-162.6-216.3c0-0.1-0.1-0.2-0.1-0.3c-3.5-10.5-6.3-22-8.5-34.4
		c-3.6-20.8-5.5-44.3-5.5-70.4l0.2-306.8l-52,0.2v-80.4H366.1l0,358.5c0,16.2,0.3,31.5,0.8,45.9c74.8,0.4,135.3,61.2,135.3,136
		c0,43.2-20.1,81.6-51.5,106.5c16.2,16.5,34.8,31,56,43.5c50.9,29.8,112.7,44.8,185.7,44.8c14.9,0,29.2-0.5,42.9-1.6
		C748.8,990.3,752.1,971.8,739.7,966.3z M475.7,581.8v34.8h-33.4v-32.4c-22.9-1-45-7.2-58-14.7l10.3-39.9c14.3,7.8,34.5,15,56.6,15
		c19.4,0,32.7-7.5,32.7-21.1c0-13-10.9-21.2-36.2-29.7c-36.5-12.3-61.4-29.3-61.4-62.4c0-30,21.2-53.6,57.7-60.7v-32.4h33.4v30
		c22.9,1,38.2,5.8,49.5,11.2L517,418c-8.9-3.7-24.6-11.6-49.1-11.6c-22.2,0-29.3,9.5-29.3,19.1c0,11.2,11.9,18.4,40.9,29.3
		c40.6,14.3,57,33.1,57,63.8C536.4,549,514.9,575,475.7,581.8z"/>
	<path class="st0" d="M546.5,103.2c-9.5,0.9-18.4,2.6-26.6,5.2c0-0.2,0-0.3,0-0.5c0-1.7-0.6-3.3-1.5-4.5c8.3-2.6,17.5-4.5,27.8-5.4
		c-0.9-13.3-4.5-25.8-10.2-37c-9.1,5.3-17.9,9.7-26.5,13.5c-0.1-1.9-0.8-3.6-2-4.9c8.4-3.7,17-8,26-13.2
		c-7.7-13.4-18.4-24.8-31.3-33.3c-9.3,1.1-18.1,2.8-26.4,4.9c0-0.2,0.1-0.5,0.1-0.7c0-1.6-0.4-3.1-1.1-4.4c6.4-1.6,13.1-3,20.2-4.1
		c-5.9-3.2-12.2-5.8-18.8-7.7c-1.1,2.5-2.4,5.5-3.7,9c-1.3-1.2-3-2-4.9-2.3c1.2-3,2.3-5.8,3.3-8.1C463.9,8,456.4,7,448.6,7
		c-3.7,0-7.4,0.2-11,0.6c6.1,2.5,14,6.4,22.5,12.2c-1.4,1.1-2.4,2.6-2.9,4.4c-13.2-9-25-13.2-30.2-14.8
		c-12.2,2.8-23.5,7.8-33.5,14.6C396.9,28,404,37,411,50c0,0,0,0,0,0c-1.9,0-3.6,0.7-5,1.9c-6.9-12.5-13.8-21.2-16.8-24.7
		c-12.8,9.8-23,22.6-29.7,37.4c5.8,3.8,14.4,8.7,25.4,12.8c-1.1,1.3-1.9,3-1.9,4.9c-11-4.1-19.6-8.9-25.6-12.8
		c-1,2.6-1.9,5.2-2.7,7.9c2,6.5,7.2,21,17.1,37.2c-1.9,0.2-3.6,1-4.8,2.3c-7.1-11.6-11.7-22.2-14.6-29.9c-1.1,5.8-1.7,11.8-1.7,18
		c0,18.8,5.3,36.3,14.5,51.2c0.4-6.8,1.4-16.3,3.9-27.1c1,0.5,2.2,0.8,3.4,0.8c0.7,0,1.3-0.1,1.9-0.3c-3.6,15.5-4.1,28.2-4.1,34
		c8.1,10.8,18.5,19.9,30.3,26.6c4.2-6.4,7.8-12.8,10.9-19.2c1.3,0.9,2.8,1.5,4.5,1.5c0.2,0,0.3,0,0.5,0c-3.1,6.7-6.8,13.4-11.3,20.2
		c11.3,5.6,23.9,9.1,37.1,9.9c0.3-3.7,1-9,2.4-15.2c1,0.5,2.2,0.8,3.4,0.8c0.6,0,1.3-0.1,1.8-0.2c-1.3,6.1-2,11.2-2.4,14.8
		c0.3,0,0.6,0,1,0c18,0,34.9-4.9,49.4-13.4c-0.5,0-1.1,0-1.6,0c-15.4,0-29.2-1.9-41.6-5.2c0.6-1.1,1-2.3,1-3.6c0-0.5-0.1-1-0.1-1.4
		c15.6,4.1,32.6,5.7,50.8,4.7c2.7-2,5.3-4.1,7.8-6.3c0.4-5.1,0.7-10,0.8-14.9c0.6,0.1,1.1,0.2,1.7,0.2c1.3,0,2.5-0.4,3.6-0.9
		c-0.1,3.3-0.2,6.6-0.5,10c2.7-2.8,5.1-5.8,7.5-8.9c-1.8-0.7-3.6-1.5-5.3-2.3c1.3-1.2,2.1-2.9,2.3-4.7c2,0.9,4,1.7,6.1,2.6
		c10.1-15.4,16-33.8,16-53.6C546.5,104.3,546.5,103.8,546.5,103.2z M486.7,125.4c-0.4-1.7-1.4-3.2-2.8-4.3c6-4.7,12.8-9,20.7-12.6
		c0.2,1.8,0.9,3.4,2.1,4.7C499.5,116.5,492.8,120.6,486.7,125.4z M473.2,122.4c-4-5.9-7.3-12.2-9.8-19c-1.1-3-2-5.9-2.7-8.9
		c1.9,0,3.6-0.7,4.9-1.9c0.7,3,1.6,6,2.7,9c2.4,6.4,5.5,12.4,9.4,18C475.9,120,474.3,121,473.2,122.4z M421.7,159.6
		c-1.2-1.3-2.8-2.2-4.6-2.4c6.9-19.9,8.5-40.2,4.8-61c0.2,0,0.4,0.1,0.6,0.1c1.6,0,3.2-0.5,4.4-1.4
		C430.3,113.4,430.1,135.6,421.7,159.6z M404.7,61.8c1,1.4,2.4,2.5,4.1,3c-4.1,4.2-8,8.8-11.5,13.6c-0.9-1.5-2.3-2.7-3.9-3.3
		C396.7,70.7,400.4,66.2,404.7,61.8z M417.1,62.3c1.7,3.9,3.3,8,4.8,12.3c0.7,2.1,1.4,4.3,2,6.6c-0.4-0.1-0.8-0.1-1.2-0.1
		c-1.4,0-2.8,0.4-3.9,1.1c-0.6-2-1.2-3.9-1.8-5.9c-1.3-3.9-2.8-7.6-4.3-11.1C414.4,64.7,416,63.7,417.1,62.3z M398.3,81.6
		c0.8,0.2,1.5,0.4,2.3,0.6c4.7,1.1,9.8,2.1,15.4,2.8c-0.6,1.1-1,2.3-1,3.7c0,0.5,0.1,1,0.2,1.5c-5.8-0.7-11.2-1.7-16.1-2.9
		c-0.7-0.2-1.4-0.4-2-0.6c0.9-1.2,1.4-2.7,1.4-4.3C398.4,82.1,398.3,81.8,398.3,81.6z M429.8,86c7.3,0.2,15.1-0.1,23.5-1.1
		c-0.2,0.6-0.3,1.3-0.3,2c0,1.2,0.3,2.2,0.7,3.2c-6.9,0.8-13.5,1.2-19.6,1.2c-1.5,0-2.9,0-4.3-0.1c0.3-0.8,0.5-1.7,0.5-2.6
		C430.3,87.7,430.1,86.8,429.8,86z M462,35.8c1.3,0.7,2.7,1.1,4.3,1.1c0.4,0,0.7-0.1,1-0.1c-3.3,12.6-5.4,27.6-3.9,43.1
		c-0.9-0.4-1.8-0.6-2.8-0.6c-0.9,0-1.7,0.2-2.5,0.5C456.6,63.9,458.7,48.6,462,35.8z M494.3,74.9c0.1,1.9,0.8,3.6,2,4.9
		c-9.8,3.6-19.2,6.2-28.1,8c0-0.3,0.1-0.6,0.1-0.9c0-1.6-0.5-3-1.3-4.3C475.7,80.9,484.8,78.3,494.3,74.9z M508.9,101
		c-1.7-6.5-3.8-12.8-6.2-18.8c1.8-0.2,3.5-1,4.7-2.3c2.5,6.3,4.8,13.1,6.7,20.6c-0.6-0.2-1.3-0.3-2-0.3
		C511.1,100.2,509.9,100.5,508.9,101z M479.5,36.2C487,44,494.8,54.1,501.5,67c-1.9,0.1-3.5,0.9-4.8,2c-5.7-10.9-12.7-20.7-21-29.3
		c-1.5-1.5-3-3-4.5-4.4c1.5-0.9,2.8-2.2,3.6-3.8C476.4,33.1,477.9,34.6,479.5,36.2z M456.8,28.5c0.2,1.8,0.9,3.4,2,4.7
		c-15.4,5.6-28.8,13.2-40.4,22.7c-0.4-1.7-1.4-3.2-2.7-4.3C426.8,42.7,440.3,34.7,456.8,28.5z M385.2,87.6c1.2,1.3,2.9,2.1,4.8,2.3
		c-2,3.4-3.8,6.8-5.5,10.5c-2.6,5.5-4.7,11-6.4,16.4c-1.2-1.3-2.9-2.1-4.8-2.2c1.7-5.3,3.8-10.7,6.4-16.2
		C381.2,94.8,383.1,91.2,385.2,87.6z M380,135.2c-1.6-2-3.1-4-4.6-6c1.7-0.7,3.1-2,3.9-3.6c1.6,2.1,3.2,4.3,4.9,6.4
		c8.3,10.3,17.5,19.1,27.6,26.3c-1.4,1-2.5,2.4-3,4.1C396.9,153.9,387.4,144.3,380,135.2z M423.6,165.9c6.2,3.5,12.6,6.5,19.3,9
		c-1.2,1.2-2,2.8-2.3,4.5c-7-2.7-13.5-5.7-19.4-9.1C422.5,169.2,423.3,167.7,423.6,165.9z M453.6,175c-1.3-1.2-3-2-4.8-2.1
		c1.8-5.3,4-10.8,6.8-16.4c4.1-8.1,9.7-16.9,17.4-25.1c1,1.5,2.4,2.5,4.1,3.1c-6.5,6.9-12.1,15-16.7,24.2
		C457.4,164.2,455.3,169.7,453.6,175z M482.6,134c1.6-0.8,2.9-2.1,3.6-3.8c6.9,7.3,15.4,13.8,25.4,19.4c-1.3,1.2-2.1,2.9-2.3,4.7
		C498.8,148.4,489.9,141.6,482.6,134z M515.2,147.7c-0.3-11.3-1.3-22-3.1-32.1c0.1,0,0.1,0,0.2,0c1.9,0,3.5-0.7,4.9-1.8
		c1.9,10.5,3.1,22,3.4,34.7c-1.1-0.6-2.3-1-3.7-1C516.3,147.5,515.7,147.5,515.2,147.7z"/>
</g>
</svg>
