<svg id="Layer_1" data-name="Layer 1" xmlns="http://www.w3.org/2000/svg" viewBox="0 0 903.6 425.09">
  <defs>
    <style>
      .cls-1 {
        fill: #104365;
      }

      .cls-2 {
        fill: #2179b8;
      }
    </style>
  </defs>
  <g>
    <g>
      <path class="cls-1" d="M172.11,334.82h-7.49c-.2-.62-.62-1.26-.84-1.88l5.21-5.21a4,4,0,0,0,0-5.83l-14.36-14.36a4,4,0,0,0-5.83,0l-5.21,5.21a7.77,7.77,0,0,0-1.88-.84v-7.49a4.18,4.18,0,0,0-4.17-4.17h-20.4a4.18,4.18,0,0,0-4.17,4.17v7.49c-.62.2-1.26.62-1.88.84l-5.21-5.21a4,4,0,0,0-5.83,0L85.69,321.9a4,4,0,0,0,0,5.83l5.21,5.21a7.77,7.77,0,0,0-.84,1.88H82.59A4.19,4.19,0,0,0,78.42,339V359.4a4.19,4.19,0,0,0,4.17,4.18h7.49c.2.62.62,1.26.84,1.88l-5.21,5.21a4,4,0,0,0,0,5.83l14.36,14.36a4,4,0,0,0,5.83,0l5.21-5.21a7.77,7.77,0,0,0,1.88.84V394a4.19,4.19,0,0,0,4.17,4.17h20.42a4.19,4.19,0,0,0,4.17-4.17v-7.49c.62-.2,1.26-.62,1.88-.84l5.21,5.21a4,4,0,0,0,5.83,0L169,376.5a4,4,0,0,0,0-5.83l-5.21-5.21a7.77,7.77,0,0,0,.84-1.88h7.49a4.18,4.18,0,0,0,4.17-4.18V339A4.22,4.22,0,0,0,172.11,334.82ZM168,355.21H161.7a4.26,4.26,0,0,0-3.95,2.92,30.41,30.41,0,0,1-2.5,6,4.07,4.07,0,0,0,.62,5l4.38,4.38-8.53,8.54-4.38-4.37a4.39,4.39,0,0,0-5-.62,30.66,30.66,0,0,1-6,2.5,4.06,4.06,0,0,0-2.92,3.95v6.25H121.32v-6.25a4.25,4.25,0,0,0-2.92-3.95,30.41,30.41,0,0,1-6-2.5,4.07,4.07,0,0,0-5,.62l-4.4,4.37-8.52-8.52,4.37-4.38a4.39,4.39,0,0,0,.62-5,30.91,30.91,0,0,1-2.5-6,4.06,4.06,0,0,0-4-2.92H86.75V343.15H93a4.25,4.25,0,0,0,4-2.92,30.17,30.17,0,0,1,2.5-6,4.07,4.07,0,0,0-.62-5l-4.37-4.4,8.52-8.53,4.38,4.38a4.39,4.39,0,0,0,5,.62,30.91,30.91,0,0,1,6-2.5,4.07,4.07,0,0,0,2.92-3.95v-6.26h12.08v6.26a4.26,4.26,0,0,0,2.92,3.95,30.17,30.17,0,0,1,6,2.5,4.07,4.07,0,0,0,5-.62l4.4-4.38,8.53,8.53-4.38,4.38a4.39,4.39,0,0,0-.62,5,30.66,30.66,0,0,1,2.5,6,4.07,4.07,0,0,0,3.95,2.92H168v12.08Z" transform="translate(-78.42 -4.48)"/>
      <path class="cls-1" d="M127.35,326.49A22.69,22.69,0,1,0,150,349.18,22.74,22.74,0,0,0,127.35,326.49Zm0,37.05a14.36,14.36,0,1,1,14.36-14.36A14.39,14.39,0,0,1,127.35,363.54Z" transform="translate(-78.42 -4.48)"/>
    </g>
    <polygon class="cls-2" points="114.13 109 114.13 140.35 133.95 140.27 114.13 109"/>
    <path class="cls-2" d="M288.47,418.06c-42.39-19-61.71-63.69-70.12-93.27,0-.05,0-.09,0-.14a103.6,103.6,0,0,1-3.66-14.82,176.14,176.14,0,0,1-2.36-30.37l.07-132.29-22.4.09V112.58H127.39l0,154.59q0,10.47.33,19.79a58.64,58.64,0,0,1,36.14,104.57A115.14,115.14,0,0,0,188,410.27q32.88,19.31,80.05,19.3,9.61,0,18.5-.69A5.67,5.67,0,0,0,288.47,418.06ZM174.62,252.29v15H160.21v-14c-9.86-.44-19.41-3.09-25-6.33l4.42-17.21A52,52,0,0,0,164,236.25c8.38,0,14.12-3.22,14.12-9.11,0-5.59-4.71-9.13-15.6-12.8-15.73-5.3-26.48-12.65-26.48-26.91,0-13,9.13-23.1,24.87-26.19v-14h14.41v13c9.86.44,16.48,2.49,21.33,4.85l-4.26,16.63c-3.83-1.62-10.59-5-21.19-5-9.56,0-12.65,4.11-12.65,8.24,0,4.85,5.15,7.94,17.66,12.65,17.49,6.18,24.56,14.26,24.56,27.51C200.81,238.17,191.54,249.34,174.62,252.29Z" transform="translate(-78.42 -4.48)"/>
    <path class="cls-1" d="M205.14,46a56.74,56.74,0,0,0-11.47,2.22c0-.07,0-.14,0-.21A3.26,3.26,0,0,0,193,46a58,58,0,0,1,12-2.33,41.92,41.92,0,0,0-4.38-16,110.78,110.78,0,0,1-11.41,5.8,3.29,3.29,0,0,0-.86-2.1,108.65,108.65,0,0,0,11.2-5.69A42.48,42.48,0,0,0,186.1,11.39a92.12,92.12,0,0,0-11.39,2.11c0-.11,0-.21,0-.32a4.09,4.09,0,0,0-.47-1.88A84.42,84.42,0,0,1,183,9.53,42.22,42.22,0,0,0,174.9,6.2c-.48,1.08-1,2.39-1.58,3.88a4.09,4.09,0,0,0-2.1-1c.5-1.31,1-2.49,1.44-3.49A42.47,42.47,0,0,0,163,4.48a43.75,43.75,0,0,0-4.75.27A52.18,52.18,0,0,1,167.93,10a4.16,4.16,0,0,0-1.26,1.89,48.4,48.4,0,0,0-13-6.39,42.12,42.12,0,0,0-14.44,6.28A66,66,0,0,1,146.75,23h0a3.24,3.24,0,0,0-2.14.81,64.44,64.44,0,0,0-7.26-10.65,42.38,42.38,0,0,0-12.81,16.12,54.84,54.84,0,0,0,11,5.53,3.28,3.28,0,0,0-.8,2.13,56.85,56.85,0,0,1-11-5.52c-.44,1.11-.82,2.24-1.16,3.39a74.16,74.16,0,0,0,7.39,16,3.3,3.3,0,0,0-2.07,1,77.36,77.36,0,0,1-6.3-12.87A42.17,42.17,0,0,0,127,68.74,69.78,69.78,0,0,1,128.7,57a3.12,3.12,0,0,0,1.46.36,3.76,3.76,0,0,0,.82-.11A66.81,66.81,0,0,0,129.19,72a42.45,42.45,0,0,0,13.07,11.47,66,66,0,0,0,4.7-8.3,3.32,3.32,0,0,0,2,.65l.2,0a66.23,66.23,0,0,1-4.86,8.73,41.89,41.89,0,0,0,16,4.28,55,55,0,0,1,1-6.57,3.24,3.24,0,0,0,1.48.37,3.51,3.51,0,0,0,.8-.11,56.15,56.15,0,0,0-1,6.39H163a42,42,0,0,0,21.32-5.78h-.71a70,70,0,0,1-17.92-2.24,3.33,3.33,0,0,0,.41-1.57,3.18,3.18,0,0,0-.06-.62,70.3,70.3,0,0,0,21.89,2q1.75-1.29,3.36-2.73c.18-2.19.29-4.32.36-6.43a3.08,3.08,0,0,0,.75.09,3.32,3.32,0,0,0,1.54-.39c0,1.41-.11,2.84-.2,4.31a43.51,43.51,0,0,0,3.21-3.84c-.78-.32-1.53-.65-2.29-1a3.23,3.23,0,0,0,1-2c.86.38,1.72.75,2.62,1.11a42,42,0,0,0,6.9-23.12C205.15,46.43,205.14,46.19,205.14,46Zm-25.77,9.57a3.28,3.28,0,0,0-1.19-1.86,43.89,43.89,0,0,1,8.94-5.42,3.26,3.26,0,0,0,.91,2A40.47,40.47,0,0,0,179.37,55.53Zm-5.8-1.29a37,37,0,0,1-5.41-12,3.36,3.36,0,0,0,2.13-.81A34.65,34.65,0,0,0,175.5,53,3.3,3.3,0,0,0,173.57,54.24Zm-22.21,16a3.29,3.29,0,0,0-2-1,51.48,51.48,0,0,0,2.08-26.28l.27,0a3.28,3.28,0,0,0,1.9-.61A54.94,54.94,0,0,1,151.36,70.27ZM144,28.11a3.34,3.34,0,0,0,1.77,1.31,52.53,52.53,0,0,0-4.94,5.87,3.27,3.27,0,0,0-1.7-1.43A56.3,56.3,0,0,1,144,28.11Zm5.35.19c.73,1.66,1.42,3.43,2.05,5.3.31.9.6,1.85.87,2.83a3,3,0,0,0-.53-.06,3.24,3.24,0,0,0-1.69.49c-.25-.85-.5-1.69-.79-2.54-.57-1.69-1.21-3.27-1.87-4.8A3.33,3.33,0,0,0,149.35,28.3Zm-8.1,8.32,1,.26a59,59,0,0,0,6.63,1.2,3.28,3.28,0,0,0-.42,1.59,3.49,3.49,0,0,0,.06.65,63.4,63.4,0,0,1-6.93-1.27l-.88-.24a3.34,3.34,0,0,0,.58-1.87C141.28,36.83,141.26,36.73,141.25,36.62Zm13.58,1.91A67.92,67.92,0,0,0,165,38.05a3.1,3.1,0,0,0-.13.87,3.44,3.44,0,0,0,.31,1.39,72.53,72.53,0,0,1-8.47.52q-.94,0-1.86,0a3.28,3.28,0,0,0,.21-1.13A3.34,3.34,0,0,0,154.83,38.53Zm13.91-21.66a4,4,0,0,0,1.86.46c.15,0,.3,0,.45,0a53.71,53.71,0,0,0-1.68,18.57,3.17,3.17,0,0,0-2.32,0A55.52,55.52,0,0,1,168.74,16.87Zm13.93,16.86a3.27,3.27,0,0,0,.84,2.1,85.06,85.06,0,0,1-12.1,3.46c0-.13,0-.25,0-.37a3.23,3.23,0,0,0-.56-1.84A83.12,83.12,0,0,0,182.67,33.73ZM189,45a70,70,0,0,0-2.66-8.11,3.23,3.23,0,0,0,2-1,69.92,69.92,0,0,1,2.9,8.87,3.34,3.34,0,0,0-.84-.12A3.24,3.24,0,0,0,189,45Zm-12.7-28a56.63,56.63,0,0,1,9.52,13.31,3.28,3.28,0,0,0-2.07.88,54.22,54.22,0,0,0-9.07-12.61c-.64-.66-1.29-1.29-1.94-1.89a4.17,4.17,0,0,0,1.56-1.64C174.93,15.72,175.6,16.37,176.26,17.05Zm-9.76-3.32a4.12,4.12,0,0,0,.87,2A58.7,58.7,0,0,0,150,25.56a3.22,3.22,0,0,0-1.16-1.84A62.12,62.12,0,0,1,166.5,13.73ZM135.6,39.21a3.2,3.2,0,0,0,2.06,1c-.84,1.46-1.65,3-2.38,4.52a59.78,59.78,0,0,0-2.77,7.06,3.29,3.29,0,0,0-2.08-1,64.93,64.93,0,0,1,2.76-7Q134.24,41.59,135.6,39.21Zm-2.22,20.53c-.7-.86-1.36-1.73-2-2.59a3.32,3.32,0,0,0,1.68-1.54c.68.93,1.37,1.85,2.12,2.78a62.22,62.22,0,0,0,11.89,11.34,3.32,3.32,0,0,0-1.3,1.77A64,64,0,0,1,133.38,59.74ZM152.16,73a57,57,0,0,0,8.33,3.9,3.22,3.22,0,0,0-1,2,59,59,0,0,1-8.39-3.94A3.25,3.25,0,0,0,152.16,73Zm12.92,3.92A3.28,3.28,0,0,0,163,76a55.19,55.19,0,0,1,2.92-7.09,46.13,46.13,0,0,1,7.49-10.82,3.35,3.35,0,0,0,1.78,1.33A43.92,43.92,0,0,0,168,69.83,51.53,51.53,0,0,0,165.08,76.91Zm12.54-17.7a3.36,3.36,0,0,0,1.57-1.65,46.29,46.29,0,0,0,10.93,8.36,3.29,3.29,0,0,0-1,2A48.62,48.62,0,0,1,177.62,59.21Zm14,5.9a93.32,93.32,0,0,0-1.34-13.85h.09a3.25,3.25,0,0,0,2.1-.78A95.65,95.65,0,0,1,194,65.44a3.37,3.37,0,0,0-1.58-.41A3.55,3.55,0,0,0,191.64,65.11Z" transform="translate(-78.42 -4.48)"/>
  </g>
  <g>
    <path class="cls-1" d="M279.14,278.18V160.1a11.69,11.69,0,0,1,11.65-11.66,11.86,11.86,0,0,1,11.85,11.66V278.18a11.85,11.85,0,0,1-11.85,11.65A11.68,11.68,0,0,1,279.14,278.18Z" transform="translate(-78.42 -4.48)"/>
    <g>
      <path class="cls-1" d="M347.31,277.79V160.49a12,12,0,0,1,7.77-11.27,11.69,11.69,0,0,1,13.21,3.11l50.88,55.35,50.69-55.35a11.69,11.69,0,0,1,13.21-3.11,12,12,0,0,1,7.77,11.27v117.3a12.1,12.1,0,0,1-12,12,12,12,0,0,1-12-12V191.17L428.1,233.71a12.41,12.41,0,0,1-8.93,4.07,11.77,11.77,0,0,1-8.93-4.07L371.4,191.17v86.62a12,12,0,0,1-24.09,0Z" transform="translate(-78.42 -4.48)"/>
      <path class="cls-1" d="M535.51,235.84V159.9a11.69,11.69,0,0,1,11.66-11.65A11.85,11.85,0,0,1,559,159.9v75.75c0,10.68,5.63,33.79,35.35,33.79,28,0,34.57-21.17,34.57-33.6V159.9a11.85,11.85,0,0,1,11.85-11.65,11.68,11.68,0,0,1,11.65,11.65v75.94c0,26.8-18.45,57.1-58.07,57.1C551.05,292.94,535.51,258.76,535.51,235.84Z" transform="translate(-78.42 -4.48)"/>
      <path class="cls-1" d="M697.1,278.18V160.1A11.74,11.74,0,0,1,709,148.44h52c26.22,0,65.25,18.46,65.25,70.31,0,40.2-26.6,71.08-65.25,71.08H709A11.73,11.73,0,0,1,697.1,278.18ZM761,266.33c26.22,0,41.75-20.58,41.75-47.58,0-37.87-27.77-46.81-41.75-46.81H720.6v94.39Z" transform="translate(-78.42 -4.48)"/>
      <path class="cls-1" d="M865.1,235.84V159.9a11.69,11.69,0,0,1,11.66-11.65A11.85,11.85,0,0,1,888.6,159.9v75.75c0,10.68,5.63,33.79,35.35,33.79,28,0,34.57-21.17,34.57-33.6V159.9a11.85,11.85,0,0,1,11.85-11.65A11.68,11.68,0,0,1,982,159.9v75.94c0,26.8-18.45,57.1-58.07,57.1C880.64,292.94,865.1,258.76,865.1,235.84Z" transform="translate(-78.42 -4.48)"/>
    </g>
  </g>
</svg>
