<?xml version="1.0" encoding="utf-8"?>
<!-- Generator: Adobe Illustrator 25.0.0, SVG Export Plug-In . SVG Version: 6.00 Build 0)  -->
<svg version="1.1" id="Layer_1" xmlns="http://www.w3.org/2000/svg" xmlns:xlink="http://www.w3.org/1999/xlink" x="0px" y="0px"
	 viewBox="0 0 1000 441.2" style="enable-background:new 0 0 1000 441.2;" xml:space="preserve">
<style type="text/css">
	.st0{fill:#2179B8;}
	.st1{fill:#104365;}
</style>
<g>
	<g>
		<g>
			<path class="st0" d="M341.3,336.5h-7.5c-0.2-0.6-0.6-1.3-0.8-1.9l5.2-5.2c1.7-1.7,1.7-4.2,0-5.8l-14.4-14.4
				c-1.7-1.7-4.2-1.7-5.8,0l-5.2,5.2c-0.6-0.4-1.3-0.6-1.9-0.8v-7.5c0-2.3-1.9-4.2-4.2-4.2h-20.4c-2.3,0-4.2,1.9-4.2,4.2v7.5
				c-0.6,0.2-1.3,0.6-1.9,0.8l-5.2-5.2c-1.7-1.7-4.2-1.7-5.8,0l-14.4,14.4c-0.8,0.8-1.3,1.9-1.3,2.9s0.4,2.1,1.3,2.9l5.2,5.2
				c-0.4,0.6-0.6,1.3-0.8,1.9h-7.5c-2.3,0-4.2,1.9-4.2,4.2v20.4c0,2.3,1.9,4.2,4.2,4.2h7.5c0.2,0.6,0.6,1.3,0.8,1.9l-5.2,5.2
				c-0.8,0.8-1.3,1.9-1.3,2.9c0,1,0.4,2.1,1.3,2.9l14.4,14.4c1.7,1.7,4.2,1.7,5.8,0l5.2-5.2c0.6,0.4,1.3,0.6,1.9,0.8v7.5
				c0,2.3,1.9,4.2,4.2,4.2h20.4c2.3,0,4.2-1.9,4.2-4.2v-7.5c0.6-0.2,1.3-0.6,1.9-0.8l5.2,5.2c1.7,1.7,4.2,1.7,5.8,0l14.4-14.4
				c1.7-1.7,1.7-4.2,0-5.8l-5.2-5.2c0.4-0.6,0.6-1.3,0.8-1.9h7.5c2.3,0,4.2-1.9,4.2-4.2v-20.4C345.5,338.4,343.6,336.5,341.3,336.5z
				 M337.1,356.9h-6.3c-1.9,0-3.3,1.3-4,2.9c-0.6,2.1-1.5,4.2-2.5,6c-1,1.7-0.6,3.8,0.6,5l4.4,4.4l-8.5,8.5l-4.4-4.4
				c-1.5-1.3-3.3-1.5-5-0.6c-1.9,1-4,1.9-6,2.5c-1.7,0.4-2.9,2.1-2.9,4v6.3h-12.1l0,0v-6.3c0-1.9-1.3-3.3-2.9-4
				c-2.1-0.6-4.2-1.5-6-2.5c-1.7-1-3.8-0.6-5,0.6l-4.4,4.4l-8.5-8.5l4.4-4.4c1.3-1.5,1.5-3.3,0.6-5c-1-1.9-1.9-4-2.5-6
				c-0.4-1.7-2.1-2.9-4-2.9h-6.3v-12.1h6.3c1.9,0,3.3-1.3,4-2.9c0.6-2.1,1.5-4.2,2.5-6c1-1.7,0.6-3.8-0.6-5l-4.4-4.4l8.5-8.5
				l4.4,4.4c1.5,1.3,3.3,1.5,5,0.6c1.9-1,4-1.9,6-2.5c1.7-0.4,2.9-2.1,2.9-4v-6.3h12.1v6.3c0,1.9,1.3,3.3,2.9,4
				c2.1,0.6,4.2,1.5,6,2.5c1.7,1,3.8,0.6,5-0.6l4.4-4.4l8.5,8.5l-4.4,4.4c-1.3,1.5-1.5,3.3-0.6,5c1,1.9,1.9,4,2.5,6
				c0.4,1.7,2.1,2.9,4,2.9h6.3V356.9L337.1,356.9z"/>
			<path class="st0" d="M296.5,328.2c-12.5,0-22.7,10.2-22.7,22.7c0,12.5,10.2,22.7,22.7,22.7s22.7-10.2,22.7-22.7
				S309,328.2,296.5,328.2z M296.5,365.2c-7.9,0-14.4-6.5-14.4-14.4c0-7.9,6.5-14.4,14.4-14.4s14.4,6.5,14.4,14.4
				C310.9,358.8,304.4,365.2,296.5,365.2z"/>
		</g>
	</g>
</g>
<g>
	<polygon class="st1" points="231.4,118.9 231.4,150.3 211.6,150.2 	"/>
	<path class="st1" d="M296.2,292.4c0.2-6.2,0.3-12.8,0.3-19.8l0-154.6H234v34.7l-22.4-0.1l0.1,132.3c0,11.3-0.8,21.4-2.4,30.4
		c-0.9,5.4-2.2,10.3-3.7,14.8c0,0,0,0.1,0,0.1c-9.8,34.5-34.5,89.7-93.4,100.5c13.1,2.9,27.7,4.3,43.8,4.3
		c31.4,0,58.1-6.4,80.1-19.3c9.1-5.4,17.2-11.6,24.1-18.7c-13.5-10.7-22.2-27.3-22.2-45.9C237.9,318.8,264,292.6,296.2,292.4z
		 M223.1,252.5l4.4-17.2c6.2,3.4,14.9,6.5,24.4,6.5c8.4,0,14.1-3.2,14.1-9.1c0-5.6-4.7-9.1-15.6-12.8c-15.7-5.3-26.5-12.6-26.5-26.9
		c0-13,9.1-23.1,24.9-26.2v-14h14.4v12.9c9.9,0.4,16.5,2.5,21.3,4.8l-4.3,16.6c-3.8-1.6-10.6-5-21.2-5c-9.6,0-12.6,4.1-12.6,8.2
		c0,4.8,5.1,7.9,17.7,12.6c17.5,6.2,24.6,14.3,24.6,27.5c0,13.1-9.3,24.3-26.2,27.2v15h-14.4v-14
		C238.3,258.4,228.7,255.7,223.1,252.5z"/>
</g>
<path class="st0" d="M198.4,325.9c-9.8,34.5-34.5,89.7-93.4,100.5c-10-2.2-19.1-5.2-27.3-9.1c-19-9-34.3-23.4-45.9-43.5
	c-6.1-10.7-11.1-23-14.9-36.9c-3.8-13.9-5.7-27.2-5.7-39.7c0-13.3,3.7-23.5,11.2-30.6c7.4-7,17-10.6,28.6-10.6
	c11.2,0,19.7,3.2,25.4,9.7c5.7,6.5,10.1,16.6,13.2,30.3c3.2,14.7,6.5,26.4,9.7,35.2c3.2,8.8,8.7,16.3,16.3,22.6
	c7.6,6.3,18.5,9.4,32.6,9.4C173.3,363.2,190.1,350.7,198.4,325.9z"/>
<path class="st0" d="M296.4,47.6c-4.1,0.4-7.9,1.1-11.5,2.2c0-0.1,0-0.1,0-0.2c0-0.7-0.2-1.4-0.6-1.9c3.6-1.1,7.6-1.9,12-2.3
	c-0.4-5.7-1.9-11.1-4.4-16c-3.9,2.3-7.7,4.2-11.4,5.8c0-0.8-0.3-1.5-0.9-2.1c3.6-1.6,7.3-3.4,11.2-5.7c-3.3-5.8-7.9-10.7-13.5-14.3
	c-4,0.5-7.8,1.2-11.4,2.1c0-0.1,0-0.2,0-0.3c0-0.7-0.2-1.3-0.5-1.9c2.7-0.7,5.6-1.3,8.7-1.8c-2.5-1.4-5.3-2.5-8.1-3.3
	c-0.5,1.1-1,2.4-1.6,3.9c-0.6-0.5-1.3-0.9-2.1-1c0.5-1.3,1-2.5,1.4-3.5c-3.1-0.7-6.4-1.1-9.7-1.1c-1.6,0-3.2,0.1-4.7,0.3
	c2.6,1.1,6.1,2.8,9.7,5.3c-0.6,0.5-1,1.1-1.3,1.9c-5.7-3.9-10.8-5.7-13-6.4c-5.2,1.2-10.1,3.3-14.4,6.3c1.5,1.7,4.5,5.6,7.6,11.2
	c0,0,0,0,0,0c-0.8,0-1.6,0.3-2.1,0.8c-3-5.4-6-9.1-7.3-10.6c-5.5,4.2-9.9,9.7-12.8,16.1c2.5,1.7,6.2,3.8,11,5.5
	c-0.5,0.6-0.8,1.3-0.8,2.1c-4.7-1.8-8.4-3.8-11.1-5.5c-0.4,1.1-0.8,2.2-1.2,3.4c0.9,2.8,3.1,9.1,7.4,16c-0.8,0.1-1.5,0.4-2.1,1
	c-3-5-5.1-9.6-6.3-12.9c-0.5,2.5-0.7,5.1-0.7,7.7c0,8.1,2.3,15.6,6.2,22.1c0.2-2.9,0.6-7,1.7-11.7c0.4,0.2,0.9,0.4,1.5,0.4
	c0.3,0,0.6,0,0.8-0.1c-1.6,6.7-1.8,12.2-1.8,14.7c3.5,4.7,8,8.6,13.1,11.5c1.8-2.7,3.4-5.5,4.7-8.3c0.5,0.4,1.2,0.7,2,0.7
	c0.1,0,0.1,0,0.2,0c-1.3,2.9-2.9,5.8-4.9,8.7c4.9,2.4,10.3,3.9,16,4.3c0.1-1.6,0.4-3.9,1-6.6c0.4,0.2,0.9,0.4,1.5,0.4
	c0.3,0,0.5,0,0.8-0.1c-0.6,2.6-0.9,4.8-1,6.4c0.1,0,0.3,0,0.4,0c7.8,0,15.1-2.1,21.3-5.8c-0.2,0-0.5,0-0.7,0
	c-6.6,0-12.6-0.8-17.9-2.2c0.3-0.5,0.4-1,0.4-1.6c0-0.2,0-0.4-0.1-0.6c6.7,1.8,14,2.5,21.9,2c1.2-0.9,2.3-1.8,3.4-2.7
	c0.2-2.2,0.3-4.3,0.4-6.4c0.2,0.1,0.5,0.1,0.8,0.1c0.6,0,1.1-0.2,1.5-0.4c0,1.4-0.1,2.8-0.2,4.3c1.1-1.2,2.2-2.5,3.2-3.8
	c-0.8-0.3-1.5-0.6-2.3-1c0.6-0.5,0.9-1.2,1-2c0.9,0.4,1.7,0.8,2.6,1.1c4.4-6.6,6.9-14.6,6.9-23.1C296.5,48.1,296.4,47.9,296.4,47.6z
	 M270.7,57.2c-0.2-0.8-0.6-1.4-1.2-1.9c2.6-2,5.5-3.9,8.9-5.4c0.1,0.8,0.4,1.5,0.9,2C276.2,53.4,273.3,55.1,270.7,57.2z M264.9,55.9
	c-1.7-2.5-3.2-5.3-4.2-8.2c-0.5-1.3-0.9-2.6-1.2-3.8c0.8,0,1.6-0.3,2.1-0.8c0.3,1.3,0.7,2.6,1.2,3.9c1,2.8,2.4,5.3,4,7.7
	C266,54.9,265.4,55.3,264.9,55.9z M242.7,72c-0.5-0.6-1.2-0.9-2-1c3-8.6,3.7-17.3,2.1-26.3c0.1,0,0.2,0,0.3,0c0.7,0,1.4-0.2,1.9-0.6
	C246.3,52,246.3,61.6,242.7,72z M235.3,29.8c0.4,0.6,1,1.1,1.8,1.3c-1.8,1.8-3.4,3.8-4.9,5.9c-0.4-0.7-1-1.2-1.7-1.4
	C231.9,33.6,233.5,31.7,235.3,29.8z M240.7,30c0.7,1.7,1.4,3.4,2.1,5.3c0.3,0.9,0.6,1.9,0.9,2.8c-0.2,0-0.3-0.1-0.5-0.1
	c-0.6,0-1.2,0.2-1.7,0.5c-0.2-0.8-0.5-1.7-0.8-2.5c-0.6-1.7-1.2-3.3-1.9-4.8C239.5,31,240.2,30.6,240.7,30z M232.6,38.3
	c0.3,0.1,0.7,0.2,1,0.3c2,0.5,4.2,0.9,6.6,1.2c-0.3,0.5-0.4,1-0.4,1.6c0,0.2,0,0.4,0.1,0.6c-2.5-0.3-4.8-0.8-6.9-1.3
	c-0.3-0.1-0.6-0.2-0.9-0.2c0.4-0.5,0.6-1.2,0.6-1.9C232.6,38.5,232.6,38.4,232.6,38.3z M246.1,40.2c3.1,0.1,6.5,0,10.1-0.5
	c-0.1,0.3-0.1,0.6-0.1,0.9c0,0.5,0.1,1,0.3,1.4c-3,0.4-5.8,0.5-8.5,0.5c-0.6,0-1.2,0-1.9,0c0.1-0.4,0.2-0.7,0.2-1.1
	C246.3,40.9,246.3,40.6,246.1,40.2z M260,18.6c0.6,0.3,1.2,0.5,1.9,0.5c0.2,0,0.3,0,0.4,0c-1.4,5.4-2.3,11.9-1.7,18.6
	c-0.4-0.2-0.8-0.2-1.2-0.2c-0.4,0-0.8,0.1-1.1,0.2C257.7,30.7,258.6,24.1,260,18.6z M274,35.4c0,0.8,0.3,1.5,0.8,2.1
	c-4.2,1.5-8.3,2.7-12.1,3.5c0-0.1,0-0.2,0-0.4c0-0.7-0.2-1.3-0.6-1.8C265.9,38,269.8,36.9,274,35.4z M280.3,46.7
	c-0.7-2.8-1.6-5.5-2.7-8.1c0.8-0.1,1.5-0.4,2-1c1.1,2.7,2.1,5.7,2.9,8.9c-0.3-0.1-0.5-0.1-0.8-0.1C281.2,46.3,280.7,46.5,280.3,46.7
	z M267.6,18.7c3.3,3.4,6.6,7.7,9.5,13.3c-0.8,0-1.5,0.4-2.1,0.9c-2.5-4.7-5.5-8.9-9.1-12.6c-0.6-0.7-1.3-1.3-1.9-1.9
	c0.7-0.4,1.2-1,1.6-1.6C266.2,17.4,266.9,18,267.6,18.7z M257.8,15.4c0.1,0.8,0.4,1.5,0.9,2c-6.6,2.4-12.4,5.7-17.4,9.8
	c-0.2-0.7-0.6-1.4-1.2-1.8C244.8,21.5,250.7,18.1,257.8,15.4z M226.9,40.9c0.5,0.6,1.3,0.9,2.1,1c-0.8,1.5-1.7,3-2.4,4.5
	c-1.1,2.4-2,4.8-2.8,7.1c-0.5-0.5-1.3-0.9-2.1-1c0.8-2.3,1.6-4.6,2.8-7C225.2,44,226,42.5,226.9,40.9z M224.7,61.4
	c-0.7-0.9-1.4-1.7-2-2.6c0.7-0.3,1.3-0.8,1.7-1.5c0.7,0.9,1.4,1.9,2.1,2.8c3.6,4.4,7.6,8.2,11.9,11.3c-0.6,0.4-1.1,1-1.3,1.8
	C232,69.5,227.9,65.4,224.7,61.4z M243.5,74.7c2.7,1.5,5.4,2.8,8.3,3.9c-0.5,0.5-0.9,1.2-1,2c-3-1.1-5.8-2.5-8.4-3.9
	C243,76.1,243.3,75.4,243.5,74.7z M256.4,78.6c-0.5-0.5-1.3-0.9-2.1-0.9c0.8-2.3,1.7-4.7,2.9-7.1c1.8-3.5,4.2-7.3,7.5-10.8
	c0.4,0.6,1,1.1,1.8,1.3c-2.8,3-5.2,6.5-7.2,10.4C258.1,73.9,257.1,76.3,256.4,78.6z M268.9,60.9c0.7-0.3,1.3-0.9,1.6-1.6
	c3,3.1,6.6,5.9,10.9,8.4c-0.6,0.5-0.9,1.2-1,2C275.9,67.1,272.1,64.2,268.9,60.9z M282.9,66.8c-0.1-4.9-0.6-9.5-1.3-13.9
	c0,0,0.1,0,0.1,0c0.8,0,1.5-0.3,2.1-0.8c0.8,4.5,1.3,9.5,1.5,15c-0.5-0.3-1-0.4-1.6-0.4C283.4,66.7,283.2,66.7,282.9,66.8z"/>
<g>
	<path class="st0" d="M350.1,272.9c-1.4-4.6,1.2-9.5,5.8-10.9c4.6-1.4,9.5,1.2,10.9,5.8c3.6,11.7,12.2,16.8,24.8,16.8
		c20.7,0,25.6-15.7,25.6-24.9v-56.3c0-4.8,3.9-8.6,8.8-8.6c4.8,0,8.6,3.9,8.6,8.6v56.3c0,22.5-16,42.3-43.1,42.3
		C370.9,301.9,356,291.6,350.1,272.9z"/>
	<path class="st0" d="M467.8,291v-87.5c0-4.8,3.9-8.6,8.6-8.6c4.8,0,8.8,3.9,8.8,8.6V291c0,4.8-4,8.6-8.8,8.6
		C471.6,299.6,467.8,295.8,467.8,291z"/>
	<path class="st0" d="M518.3,290.7v-87c0-3.7,2.3-7.1,5.8-8.4c3.5-1.4,7.3-0.4,9.8,2.3l37.7,41l37.6-41c2.4-2.7,6.3-3.7,9.8-2.3
		c3.5,1.3,5.8,4.6,5.8,8.4v87c0,4.9-4,8.9-8.9,8.9c-5,0-8.9-4-8.9-8.9v-64.2L578.2,258c-1.7,1.9-4.2,3-6.6,3c-2.6,0-5-1.2-6.6-3
		l-28.8-31.5v64.2c0,4.9-3.9,8.9-8.9,8.9C522.3,299.6,518.3,295.6,518.3,290.7z"/>
	<path class="st0" d="M657.8,259.6v-56.3c0-4.8,3.9-8.6,8.6-8.6c4.8,0,8.8,3.9,8.8,8.6v56.2c0,7.9,4.2,25.1,26.2,25.1
		c20.7,0,25.6-15.7,25.6-24.9v-56.3c0-4.8,4-8.6,8.8-8.6c4.8,0,8.6,3.9,8.6,8.6v56.3c0,19.9-13.7,42.3-43.1,42.3
		C669.3,301.9,657.8,276.6,657.8,259.6z"/>
	<path class="st0" d="M777.6,291v-87.5c0-4.8,3.9-8.6,8.8-8.6H825c19.4,0,48.4,13.7,48.4,52.1c0,29.8-19.7,52.7-48.4,52.7h-38.6
		C781.5,299.6,777.6,295.8,777.6,291z M825,282.2c19.4,0,31-15.3,31-35.3c0-28.1-20.6-34.7-31-34.7H795v70H825z"/>
	<path class="st0" d="M902.2,259.6v-56.3c0-4.8,3.9-8.6,8.6-8.6c4.8,0,8.8,3.9,8.8,8.6v56.2c0,7.9,4.2,25.1,26.2,25.1
		c20.7,0,25.6-15.7,25.6-24.9v-56.3c0-4.8,4-8.6,8.8-8.6c4.8,0,8.6,3.9,8.6,8.6v56.3c0,19.9-13.7,42.3-43.1,42.3
		C913.7,301.9,902.2,276.6,902.2,259.6z"/>
</g>
</svg>
