<?xml version="1.0" encoding="utf-8"?>
<!-- Generator: Adobe Illustrator 25.0.0, SVG Export Plug-In . SVG Version: 6.00 Build 0)  -->
<svg version="1.1" id="Layer_1" xmlns="http://www.w3.org/2000/svg" xmlns:xlink="http://www.w3.org/1999/xlink" x="0px" y="0px"
	 viewBox="0 0 1000 441.2" style="enable-background:new 0 0 1000 441.2;" xml:space="preserve">
<style type="text/css">
	.st0{fill:#219EBC;}
	.st1{fill:#367280;}
	.st2{fill:#A4D4DF;}
	.st3{fill:#BEE6F0;}
</style>
<polygon class="st0" points="233.1,119.3 233.1,150.6 213.3,150.5 "/>
<g>
	<g>
		<g>
			<g>
				<g>
					<path class="st1" d="M343,334.8h-7.5c-0.2-0.6-0.6-1.3-0.8-1.9l5.2-5.2c1.7-1.7,1.7-4.2,0-5.8l-14.4-14.4
						c-1.7-1.7-4.2-1.7-5.8,0l-5.2,5.2c-0.6-0.4-1.3-0.6-1.9-0.8v-7.5c0-2.3-1.9-4.2-4.2-4.2H288c-2.3,0-4.2,1.9-4.2,4.2v7.5
						c-0.6,0.2-1.3,0.6-1.9,0.8l-5.2-5.2c-1.7-1.7-4.2-1.7-5.8,0l-14.4,14.4c-0.8,0.8-1.3,1.9-1.3,2.9s0.4,2.1,1.3,2.9l5.2,5.2
						c-0.4,0.6-0.6,1.3-0.8,1.9h-7.5c-2.3,0-4.2,1.9-4.2,4.2v20.4c0,2.3,1.9,4.2,4.2,4.2h7.5c0.2,0.6,0.6,1.3,0.8,1.9l-5.2,5.2
						c-0.8,0.8-1.3,1.9-1.3,2.9c0,1,0.4,2.1,1.3,2.9l14.4,14.4c1.7,1.7,4.2,1.7,5.8,0l5.2-5.2c0.6,0.4,1.3,0.6,1.9,0.8v7.5
						c0,2.3,1.9,4.2,4.2,4.2h20.4c2.3,0,4.2-1.9,4.2-4.2v-7.5c0.6-0.2,1.3-0.6,1.9-0.8l5.2,5.2c1.7,1.7,4.2,1.7,5.8,0l14.4-14.4
						c1.7-1.7,1.7-4.2,0-5.8l-5.2-5.2c0.4-0.6,0.6-1.3,0.8-1.9h7.5c2.3,0,4.2-1.9,4.2-4.2V339C347.2,336.7,345.3,334.8,343,334.8z
						 M338.8,355.2h-6.3c-1.9,0-3.3,1.3-4,2.9c-0.6,2.1-1.5,4.2-2.5,6c-1,1.7-0.6,3.8,0.6,5l4.4,4.4l-8.5,8.5l-4.4-4.4
						c-1.5-1.3-3.3-1.5-5-0.6c-1.9,1-4,1.9-6,2.5c-1.7,0.4-2.9,2.1-2.9,4v6.3h-12.1l0,0v-6.3c0-1.9-1.3-3.3-2.9-4
						c-2.1-0.6-4.2-1.5-6-2.5c-1.7-1-3.8-0.6-5,0.6l-4.4,4.4l-8.5-8.5l4.4-4.4c1.3-1.5,1.5-3.3,0.6-5c-1-1.9-1.9-4-2.5-6
						c-0.4-1.7-2.1-2.9-4-2.9h-6.3v-12.1h6.3c1.9,0,3.3-1.3,4-2.9c0.6-2.1,1.5-4.2,2.5-6c1-1.7,0.6-3.8-0.6-5l-4.4-4.4l8.5-8.5
						l4.4,4.4c1.5,1.3,3.3,1.5,5,0.6c1.9-1,4-1.9,6-2.5c1.7-0.4,2.9-2.1,2.9-4v-6.3h12.1v6.3c0,1.9,1.3,3.3,2.9,4
						c2.1,0.6,4.2,1.5,6,2.5c1.7,1,3.8,0.6,5-0.6l4.4-4.4l8.5,8.5l-4.4,4.4c-1.3,1.5-1.5,3.3-0.6,5c1,1.9,1.9,4,2.5,6
						c0.4,1.7,2.1,2.9,4,2.9h6.3V355.2L338.8,355.2z"/>
					<path class="st1" d="M298.2,326.5c-12.5,0-22.7,10.2-22.7,22.7c0,12.5,10.2,22.7,22.7,22.7s22.7-10.2,22.7-22.7
						S310.7,326.5,298.2,326.5z M298.2,363.6c-7.9,0-14.4-6.5-14.4-14.4c0-7.9,6.5-14.4,14.4-14.4c7.9,0,14.4,6.5,14.4,14.4
						C312.6,357.1,306.1,363.6,298.2,363.6z"/>
				</g>
			</g>
		</g>
		<path class="st1" d="M200.1,324.2c-9.8,34.5-34.5,89.7-93.4,100.5c-10-2.2-19.1-5.2-27.3-9.1c-19-9-34.3-23.4-45.9-43.5
			c-6.1-10.7-11.1-23-14.9-36.9c-3.8-13.9-5.7-27.2-5.7-39.7c0-13.3,3.7-23.5,11.2-30.6c7.4-7,17-10.6,28.6-10.6
			c11.2,0,19.7,3.2,25.4,9.7c5.7,6.5,10.1,16.6,13.2,30.3c3.2,14.7,6.5,26.4,9.7,35.2c3.2,8.8,8.7,16.3,16.3,22.6
			c7.6,6.3,18.5,9.4,32.6,9.4C175,361.5,191.8,349.1,200.1,324.2z"/>
		<path class="st0" d="M297.9,290.7c0.2-6.2,0.3-12.8,0.3-19.8l0-154.6h-62.6V151l-22.4-0.1l0.1,132.3c0,11.3-0.8,21.4-2.4,30.4
			c-0.9,5.4-2.2,10.3-3.7,14.8c0,0,0,0.1,0,0.1c-9.8,34.5-34.5,89.7-93.4,100.5c13.1,2.9,27.7,4.3,43.8,4.3
			c31.4,0,58.1-6.4,80.1-19.3c9.1-5.4,17.2-11.6,24.1-18.7c-13.5-10.7-22.2-27.3-22.2-45.9C239.6,317.1,265.7,290.9,297.9,290.7z
			 M224.8,250.8l4.4-17.2c6.2,3.4,14.9,6.5,24.4,6.5c8.4,0,14.1-3.2,14.1-9.1c0-5.6-4.7-9.1-15.6-12.8
			c-15.7-5.3-26.5-12.6-26.5-26.9c0-13,9.1-23.1,24.9-26.2v-14H265V164c9.9,0.4,16.5,2.5,21.3,4.8l-4.3,16.6c-3.8-1.6-10.6-5-21.2-5
			c-9.6,0-12.6,4.1-12.6,8.2c0,4.8,5.1,7.9,17.7,12.6c17.5,6.2,24.6,14.3,24.6,27.5c0,13.1-9.3,24.3-26.2,27.2v15h-14.4v-14
			C240,256.7,230.4,254,224.8,250.8z"/>
	</g>
	<g>
		<path class="st1" d="M256,4.5c-23.3,0-42.2,18.9-42.2,42.2c0,23.3,18.9,42.2,42.2,42.2c23.3,0,42.2-18.9,42.2-42.2
			C298.2,23.4,279.3,4.5,256,4.5z"/>
		<path class="st2" d="M285.1,48.6c4-1.4,8.3-2.3,13-2.7c0-0.8,0-1.5-0.1-2.3c-5,0.4-9.5,1.4-13.4,2.7c-1.1-4.5-2.4-8.6-4-12.2
			c4.2-1.7,8.5-3.9,13-6.5c-0.3-0.7-0.7-1.3-1.1-2c-4.5,2.6-8.8,4.7-12.9,6.4c-3.1-6.5-6.8-11.4-10.4-15.1c-1.1-1.1-2.2-2.2-3.3-3.1
			c4.1-1.1,8.5-2,13.1-2.6c-1-0.7-2-1.3-3.1-1.9c-3.7,0.6-7.1,1.3-10.3,2.2c0.8-2.2,1.5-4,2.2-5.5c-0.7-0.2-1.5-0.4-2.2-0.6
			c-0.7,1.6-1.6,3.7-2.4,6.1c-4.5-3.5-8.9-5.7-12.1-7c-1.6,0.2-3.1,0.4-4.6,0.8c2.5,0.7,8.3,2.8,14.7,7.5c-8.6,2.9-15.3,7-20.6,11.6
			c-3.3-6.5-6.8-11-8.4-12.9c-0.6,0.4-1.2,0.9-1.8,1.3c1.5,1.7,5.2,6.4,8.5,13.1c-3.2,3-5.9,6.2-8,9.4c-5.9-1.9-10.4-4.5-13.3-6.4
			c-0.3,0.7-0.6,1.4-0.9,2.1c2.9,1.9,7.3,4.3,12.9,6.2c-1.3,2.1-2.4,4.2-3.4,6.3c-1.2,2.6-2.2,5.1-3,7.6c-4.5-7.2-6.9-13.7-7.8-16.6
			c-0.4,1.3-0.7,2.7-1,4.1c1.4,3.8,3.9,9.4,7.9,15.4c-1.6,5.8-2.2,11-2.4,14.5c0.7,1.1,1.4,2.2,2.2,3.2c0-2.6,0.2-8.3,1.9-15.2
			c0.7,1,1.5,2,2.3,3c3.6,4.5,8.4,9.2,14.6,13.2c-1.5,3.5-3.4,7-5.7,10.4c0.7,0.4,1.3,0.7,2,1.1c2.3-3.5,4.1-6.9,5.6-10.3
			c3.6,2.1,7.6,4,12,5.5c-1,3.8-1.4,7-1.6,9.1c0.8,0,1.5,0.1,2.3,0.1c0.2-1.9,0.6-4.9,1.5-8.5c5.8,1.7,12.2,2.7,19.5,2.7
			c0.2,0,0.5,0,0.7,0c1.2-0.7,2.5-1.5,3.6-2.4c-8.4,0.5-16.2-0.4-23.3-2.4c0.8-2.7,1.9-5.5,3.3-8.4c2.3-4.6,5.2-8.5,8.6-11.8
			c3.9,4.4,9,8.2,15.2,11.3c0,2.8-0.2,5.7-0.4,8.6c0.8-0.8,1.7-1.6,2.4-2.4c0.1-1.8,0.2-3.5,0.2-5.1c1,0.4,2,0.9,3,1.3
			c0.5-0.6,0.9-1.3,1.3-1.9c-1.5-0.6-2.9-1.2-4.3-1.9C287,60.7,286.3,54.3,285.1,48.6z M264.5,15.6c1.1,0.9,2.1,1.9,3.2,3
			c4,4.1,7.3,9,10,14.4c-5.3,2.1-10.4,3.5-15.1,4.3C261.5,29.5,262.7,21.8,264.5,15.6z M262.2,15.1c-1.8,6.4-3.1,14.4-2,22.6
			c-5.3,0.8-10.1,1-14.5,0.7c-0.4-1.7-0.9-3.3-1.4-4.8c-0.8-2.5-1.8-4.8-2.8-6.9C247.3,21.6,254.2,17.8,262.2,15.1z M239.9,28.3
			c0.9,1.9,1.7,3.9,2.4,6c0.4,1.3,0.8,2.6,1.2,3.9c-3-0.3-5.8-0.8-8.2-1.4c-0.7-0.2-1.5-0.4-2.2-0.6
			C235.1,33.4,237.4,30.7,239.9,28.3z M241.8,70.9c-5-3.3-9.5-7.5-13.6-12.5c-1.2-1.5-2.3-3-3.3-4.5c0.8-2.9,2-6,3.4-9.2
			c1.1-2.3,2.2-4.4,3.5-6.4c0.9,0.3,1.8,0.5,2.8,0.8c2.8,0.7,5.9,1.2,9.4,1.5C246.3,50.9,245.6,61.1,241.8,70.9z M258.9,68.9
			c-1.5,3-2.6,6-3.4,8.7c-4.2-1.4-8.1-3.2-11.8-5.5c4.6-11.8,4.5-22.6,2.7-31.4c1.1,0.1,2.2,0.1,3.4,0.1c3.4,0,7.1-0.3,10.9-0.9
			c0.4,2,1,4.1,1.7,6.1c1.4,3.7,3.3,7.2,5.8,10.3C263.9,60.4,260.9,64.8,258.9,68.9z M269.8,54.8c-2.3-2.9-4.1-6.1-5.3-9.5
			c-0.7-1.9-1.2-3.8-1.6-5.7c4.9-0.9,10.1-2.4,15.7-4.5c1.7,3.8,3,7.8,4,12.2C277.4,49.2,273.2,51.9,269.8,54.8z M271.2,56.5
			c3.4-3,7.4-5.3,11.8-7.1c1.1,5.4,1.6,11.2,1.7,17.4C279.2,63.9,274.7,60.5,271.2,56.5z"/>
		<g>
			<path class="st3" d="M283.8,44.6c-1.8,0-3.3,1.5-3.3,3.3c0,1.8,1.5,3.3,3.3,3.3c1.8,0,3.3-1.5,3.3-3.3
				C287.1,46.1,285.6,44.6,283.8,44.6z"/>
			<path class="st3" d="M269.5,52.9c-1.8,0-3.3,1.5-3.3,3.3c0,1.8,1.5,3.3,3.3,3.3c1.8,0,3.3-1.5,3.3-3.3
				C272.8,54.4,271.4,52.9,269.5,52.9z"/>
			<path class="st3" d="M256.1,75.9c-1.8,0-3.3,1.5-3.3,3.3c0,1.8,1.5,3.3,3.3,3.3s3.3-1.5,3.3-3.3C259.4,77.4,258,75.9,256.1,75.9z
				"/>
			<path class="st3" d="M242.3,69.1c-1.8,0-3.3,1.5-3.3,3.3s1.5,3.3,3.3,3.3c1.8,0,3.3-1.5,3.3-3.3
				C245.6,70.6,244.1,69.1,242.3,69.1z"/>
			<path class="st3" d="M223.5,50.7c-1.8,0-3.3,1.5-3.3,3.3c0,1.8,1.5,3.3,3.3,3.3c1.8,0,3.3-1.5,3.3-3.3
				C226.8,52.2,225.4,50.7,223.5,50.7z"/>
			<path class="st3" d="M231.4,33.6c-1.8,0-3.3,1.5-3.3,3.3c0,1.8,1.5,3.3,3.3,3.3c1.8,0,3.3-1.5,3.3-3.3
				C234.7,35.1,233.2,33.6,231.4,33.6z"/>
			<path class="st3" d="M245.1,36.3c-1.8,0-3.3,1.5-3.3,3.3c0,1.8,1.5,3.3,3.3,3.3c1.8,0,3.3-1.5,3.3-3.3
				C248.4,37.8,246.9,36.3,245.1,36.3z"/>
			<path class="st3" d="M240.1,22.9c-1.8,0-3.3,1.5-3.3,3.3c0,1.8,1.5,3.3,3.3,3.3c1.8,0,3.3-1.5,3.3-3.3
				C243.4,24.4,241.9,22.9,240.1,22.9z"/>
			<path class="st3" d="M264,9c-2.3,0-4.1,1.9-4.1,4.1c0,2.3,1.9,4.1,4.1,4.1c2.3,0,4.1-1.9,4.1-4.1C268.1,10.8,266.3,9,264,9z"/>
			<path class="st3" d="M261.5,35.6c-1.8,0-3.3,1.5-3.3,3.3c0,1.8,1.5,3.3,3.3,3.3s3.3-1.5,3.3-3.3C264.8,37,263.3,35.6,261.5,35.6z
				"/>
			<path class="st3" d="M279.3,30.3c-1.8,0-3.3,1.5-3.3,3.3c0,1.8,1.5,3.3,3.3,3.3c1.8,0,3.3-1.5,3.3-3.3
				C282.6,31.8,281.2,30.3,279.3,30.3z"/>
			<path class="st3" d="M285.7,65c-1.8,0-3.3,1.5-3.3,3.3c0,1.8,1.5,3.3,3.3,3.3c1.8,0,3.3-1.5,3.3-3.3C289,66.4,287.6,65,285.7,65z
				"/>
		</g>
	</g>
</g>
<g>
	<g>
		<path class="st1" d="M375.6,217.9c-1.3-4.3,1.1-8.8,5.3-10.1c4.3-1.3,8.8,1.1,10.1,5.3c3.3,10.8,11.3,15.6,22.9,15.6
			c19.2,0,23.7-14.5,23.7-23.1v-52.1c0-4.4,3.6-8,8.1-8c4.4,0,8,3.6,8,8v52.1c0,20.8-14.8,39.2-39.8,39.2
			C394.8,244.8,381,235.2,375.6,217.9z"/>
		<path class="st1" d="M484.4,234.6v-81c0-4.4,3.6-8,8-8c4.4,0,8.1,3.6,8.1,8v81c0,4.4-3.7,8-8.1,8C488,242.6,484.4,239,484.4,234.6
			z"/>
		<path class="st1" d="M531.2,234.4v-80.5c0-3.5,2.1-6.5,5.3-7.7c3.2-1.3,6.8-0.4,9.1,2.1l34.9,38l34.8-38c2.3-2.5,5.9-3.5,9.1-2.1
			c3.2,1.2,5.3,4.3,5.3,7.7v80.5c0,4.5-3.7,8.3-8.3,8.3c-4.7,0-8.3-3.7-8.3-8.3v-59.4l-26.5,29.2c-1.6,1.7-3.9,2.8-6.1,2.8
			c-2.4,0-4.7-1.1-6.1-2.8l-26.7-29.2v59.4c0,4.5-3.6,8.3-8.3,8.3C535,242.6,531.2,238.9,531.2,234.4z"/>
		<path class="st1" d="M660.4,205.6v-52.1c0-4.4,3.6-8,8-8c4.4,0,8.1,3.6,8.1,8v52c0,7.3,3.9,23.2,24.3,23.2
			c19.2,0,23.7-14.5,23.7-23.1v-52.1c0-4.4,3.7-8,8.1-8s8,3.6,8,8v52.1c0,18.4-12.7,39.2-39.8,39.2
			C671,244.8,660.4,221.3,660.4,205.6z"/>
		<path class="st1" d="M771.3,234.6v-81c0-4.4,3.6-8,8.1-8h35.7c18,0,44.8,12.7,44.8,48.2c0,27.6-18.3,48.8-44.8,48.8h-35.7
			C774.9,242.6,771.3,239,771.3,234.6z M815.1,226.5c18,0,28.7-14.1,28.7-32.7c0-26-19.1-32.1-28.7-32.1h-27.7v64.8H815.1z"/>
		<path class="st1" d="M886.5,205.6v-52.1c0-4.4,3.6-8,8-8c4.4,0,8.1,3.6,8.1,8v52c0,7.3,3.9,23.2,24.3,23.2
			c19.2,0,23.7-14.5,23.7-23.1v-52.1c0-4.4,3.7-8,8.1-8s8,3.6,8,8v52.1c0,18.4-12.7,39.2-39.8,39.2
			C897.2,244.8,886.5,221.3,886.5,205.6z"/>
	</g>
	<g>
		<path class="st0" d="M408.4,335.1l-3.7-28.9h-0.2c-0.1,1.1-0.3,2.5-0.6,4.4c-0.3,1.9-0.6,3.3-0.8,4.4l-4.2,20h-3.6l6.9-32.6h5.4
			l3.3,26.8h0.2l14.7-26.8h5.9l-6.8,32.6H421c1.9-8.8,3.3-15.5,4.3-20.2s1.7-7.6,2.1-8.7h-0.1l-16,28.9H408.4z"/>
		<path class="st0" d="M448,322.7l11.7-12h4.5l-10.5,10.4l6.6,14h-4.2l-5.2-11.7l-3.4,2.7l-1.8,8.9h-3.8l7.4-34.7h3.8
			c-1.1,5-2,9.5-2.9,13.4S448.6,320.8,448,322.7L448,322.7z"/>
		<path class="st0" d="M486.3,310.4c2.8,0,5.1,0.8,6.7,2.5c1.6,1.7,2.5,4,2.5,6.9c0,2.8-0.5,5.4-1.6,7.9c-1.1,2.5-2.5,4.4-4.3,5.7
			c-1.8,1.4-3.9,2-6.2,2c-2.9,0-5.1-0.8-6.7-2.5c-1.6-1.7-2.4-4-2.4-6.9c0-2.8,0.5-5.5,1.6-8c1.1-2.5,2.5-4.4,4.4-5.7
			C482.1,311.1,484.1,310.4,486.3,310.4z M491.6,319.3c0-1.7-0.5-3.1-1.4-4.2c-0.9-1.1-2.2-1.6-3.8-1.6c-1.6,0-3.1,0.5-4.4,1.6
			c-1.3,1.1-2.3,2.6-3,4.6c-0.7,2-1.1,4.1-1.1,6.5c0,1.9,0.5,3.5,1.4,4.5c0.9,1.1,2.3,1.6,4.1,1.6c1.5,0,2.9-0.5,4.2-1.6
			c1.2-1.1,2.2-2.6,2.9-4.6S491.6,321.9,491.6,319.3z"/>
		<path class="st0" d="M522.3,335.1l3.3-15.4c0.3-1.4,0.4-2.4,0.4-3c0-1-0.2-1.8-0.7-2.4c-0.5-0.6-1.2-0.9-2.4-0.9
			c-1.2,0-2.5,0.4-3.6,1.3c-1.2,0.9-2.2,2.2-3.1,3.8c-0.9,1.7-1.6,3.7-2.1,6l-2.3,10.6h-3.7l5.2-24.4h3.1l-0.5,4.5h0.2
			c1.3-1.8,2.6-3,3.9-3.8c1.3-0.8,2.6-1.2,4-1.2c1.7,0,3,0.5,3.9,1.4c0.9,1,1.4,2.3,1.6,4h0.2c1.3-1.9,2.6-3.2,4.1-4.1
			c1.4-0.9,2.9-1.3,4.4-1.3c1.9,0,3.3,0.5,4.4,1.5c1,1,1.5,2.5,1.5,4.4c0,1-0.2,2.3-0.5,4l-3.2,15h-3.8l3.3-15.4
			c0.3-1.5,0.4-2.6,0.4-3.3c0-0.9-0.3-1.7-0.8-2.2c-0.5-0.6-1.3-0.8-2.4-0.8c-1.2,0-2.4,0.4-3.6,1.3c-1.2,0.9-2.2,2.1-3.1,3.7
			c-0.9,1.6-1.6,3.5-2,5.6l-2.4,11.1H522.3z"/>
		<path class="st0" d="M567.8,335.6c-1.4,0-2.7-0.4-3.8-1.1c-1.1-0.8-1.9-1.8-2.5-3.1h-0.2l-1.6,3.8H557l7.4-34.7h3.7
			c-0.8,3.6-1.3,6.3-1.7,8.3c-0.4,1.9-1,4.1-1.7,6.7h0.2c1.4-1.8,2.7-3,4.1-3.9c1.3-0.8,2.7-1.2,4.2-1.2c2.1,0,3.7,0.7,4.9,2.2
			c1.2,1.5,1.8,3.5,1.8,6.1c0,3.1-0.5,6-1.5,8.6c-1,2.6-2.4,4.7-4.3,6.2C572.2,334.8,570.1,335.6,567.8,335.6z M572,313.4
			c-1.4,0-2.9,0.7-4.4,2.1c-1.5,1.4-2.7,3.2-3.5,5.3c-0.9,2.1-1.3,4.3-1.3,6.6c0,1.6,0.4,2.9,1.2,3.8c0.8,0.9,2,1.3,3.6,1.3
			c1.5,0,2.8-0.6,4.1-1.8c1.3-1.2,2.3-2.9,3.1-5.1c0.8-2.2,1.2-4.6,1.2-7.1C575.9,315.1,574.6,313.4,572,313.4z"/>
		<path class="st0" d="M605.5,310.4c2.8,0,5.1,0.8,6.7,2.5c1.6,1.7,2.5,4,2.5,6.9c0,2.8-0.5,5.4-1.6,7.9c-1.1,2.5-2.5,4.4-4.3,5.7
			c-1.8,1.4-3.9,2-6.2,2c-2.9,0-5.1-0.8-6.7-2.5c-1.6-1.7-2.4-4-2.4-6.9c0-2.8,0.5-5.5,1.6-8c1.1-2.5,2.5-4.4,4.4-5.7
			C601.2,311.1,603.2,310.4,605.5,310.4z M610.7,319.3c0-1.7-0.5-3.1-1.4-4.2c-0.9-1.1-2.2-1.6-3.8-1.6c-1.6,0-3.1,0.5-4.4,1.6
			c-1.3,1.1-2.3,2.6-3,4.6c-0.7,2-1.1,4.1-1.1,6.5c0,1.9,0.5,3.5,1.4,4.5c0.9,1.1,2.3,1.6,4.1,1.6c1.5,0,2.9-0.5,4.2-1.6
			c1.2-1.1,2.2-2.6,2.9-4.6C610.4,324.1,610.7,321.9,610.7,319.3z"/>
		<path class="st0" d="M641.2,335.1h-16l0.5-2.6l15.5-19h-10.7l0.6-2.8h14.6l-0.6,3.1L630,332.3h11.8L641.2,335.1z"/>
		<path class="st0" d="M660.3,335.1h-3.7l5.2-24.4h3.7L660.3,335.1z M662.8,304.5c0-0.8,0.2-1.5,0.7-2c0.5-0.5,1.1-0.8,1.8-0.8
			c1.3,0,2,0.7,2,2c0,0.8-0.2,1.5-0.7,2.1c-0.5,0.6-1.1,0.8-1.7,0.8c-0.6,0-1.1-0.2-1.5-0.5C663,305.6,662.8,305.1,662.8,304.5z"/>
		<path class="st0" d="M704.3,322.7l11.7-12h4.5l-10.5,10.4l6.6,14h-4.2l-5.2-11.7l-3.4,2.7l-1.8,8.9h-3.8l7.4-34.7h3.8
			c-1.1,5-2,9.5-2.9,13.4S704.9,320.8,704.3,322.7L704.3,322.7z"/>
		<path class="st0" d="M733.4,335.1h-3.7l5.2-24.4h3.7L733.4,335.1z M735.9,304.5c0-0.8,0.2-1.5,0.7-2c0.5-0.5,1.1-0.8,1.8-0.8
			c1.3,0,2,0.7,2,2c0,0.8-0.2,1.5-0.7,2.1c-0.5,0.6-1.1,0.8-1.7,0.8c-0.6,0-1.1-0.2-1.5-0.5C736.1,305.6,735.9,305.1,735.9,304.5z"
			/>
		<path class="st0" d="M759.1,310.7l-3.3,15.5c-0.3,1.3-0.4,2.4-0.4,3.1c0,2.1,1.1,3.2,3.3,3.2c1.3,0,2.6-0.4,3.9-1.3
			c1.3-0.9,2.4-2.2,3.3-3.8c1-1.7,1.7-3.7,2.2-6l2.2-10.6h3.7l-5.1,24.4h-3.1l0.5-4.5H766c-1.5,1.9-2.8,3.1-4.2,3.9
			c-1.3,0.7-2.7,1.1-4.1,1.1c-1.9,0-3.4-0.5-4.5-1.5c-1.1-1-1.6-2.5-1.6-4.4c0-0.9,0.2-2.2,0.5-3.8l3.3-15.1H759.1z"/>
		<path class="st0" d="M795.8,335.6c-2.9,0-5.1-0.8-6.7-2.4c-1.6-1.6-2.4-3.8-2.4-6.7c0-3,0.6-5.7,1.6-8.2c1.1-2.5,2.6-4.5,4.6-5.9
			c1.9-1.4,4.1-2.1,6.5-2.1c2,0,4,0.4,6,1.1l-1,3.1c-1.8-0.8-3.4-1.1-4.9-1.1c-1.7,0-3.2,0.6-4.6,1.7c-1.4,1.1-2.5,2.7-3.2,4.7
			c-0.8,2-1.2,4.2-1.2,6.6c0,1.9,0.5,3.4,1.5,4.4c1,1.1,2.4,1.6,4.1,1.6c1.1,0,2.1-0.1,3-0.4c1-0.3,1.9-0.6,2.8-1v3.2
			C800.1,335.1,798.1,335.6,795.8,335.6z"/>
		<path class="st0" d="M830.4,335.1l3.3-15.4c0.3-1.4,0.4-2.4,0.4-3c0-2.2-1.1-3.3-3.3-3.3c-1.3,0-2.6,0.4-3.9,1.3
			c-1.3,0.9-2.4,2.2-3.3,3.8s-1.7,3.7-2.2,6.1l-2.3,10.5h-3.7l7.4-34.7h3.7c-0.3,1.2-0.5,2.4-0.8,3.5c-0.2,1.1-0.5,2.3-0.8,3.5
			c-0.3,1.2-0.5,2.4-0.8,3.7c-0.3,1.3-0.7,2.7-1.1,4.2h0.2c1.4-1.8,2.8-3.1,4.1-3.9c1.4-0.8,2.8-1.2,4.3-1.2c1.9,0,3.5,0.5,4.5,1.6
			c1.1,1.1,1.6,2.6,1.6,4.5c0,0.9-0.2,2.2-0.5,3.7c-0.6,2.9-1.7,7.9-3.2,15H830.4z"/>
		<path class="st0" d="M859.7,310.7l-3.3,15.5c-0.3,1.3-0.4,2.4-0.4,3.1c0,2.1,1.1,3.2,3.3,3.2c1.3,0,2.6-0.4,3.9-1.3
			c1.3-0.9,2.4-2.2,3.3-3.8c1-1.7,1.7-3.7,2.2-6l2.2-10.6h3.7l-5.1,24.4h-3.1l0.5-4.5h-0.3c-1.5,1.9-2.8,3.1-4.2,3.9
			c-1.3,0.7-2.7,1.1-4.1,1.1c-1.9,0-3.4-0.5-4.5-1.5c-1.1-1-1.6-2.5-1.6-4.4c0-0.9,0.2-2.2,0.5-3.8l3.3-15.1H859.7z"/>
		<path class="st0" d="M900.6,335.1l3.3-15.4c0.3-1.4,0.4-2.4,0.4-3c0-1-0.2-1.8-0.7-2.4c-0.5-0.6-1.2-0.9-2.4-0.9
			c-1.2,0-2.5,0.4-3.6,1.3c-1.2,0.9-2.2,2.2-3.1,3.8c-0.9,1.7-1.6,3.7-2.1,6l-2.3,10.6h-3.7l5.2-24.4h3.1l-0.5,4.5h0.2
			c1.3-1.8,2.6-3,3.9-3.8c1.3-0.8,2.6-1.2,4-1.2c1.7,0,3,0.5,3.9,1.4c0.9,1,1.4,2.3,1.6,4h0.2c1.3-1.9,2.6-3.2,4.1-4.1
			c1.4-0.9,2.9-1.3,4.4-1.3c1.9,0,3.3,0.5,4.4,1.5c1,1,1.5,2.5,1.5,4.4c0,1-0.2,2.3-0.5,4l-3.2,15h-3.8l3.3-15.4
			c0.3-1.5,0.4-2.6,0.4-3.3c0-0.9-0.3-1.7-0.8-2.2c-0.5-0.6-1.3-0.8-2.4-0.8c-1.2,0-2.4,0.4-3.6,1.3c-1.2,0.9-2.2,2.1-3.1,3.7
			c-0.9,1.6-1.6,3.5-2,5.6l-2.4,11.1H900.6z"/>
		<path class="st0" d="M939.1,335.1h-3.7l5.2-24.4h3.7L939.1,335.1z M941.6,304.5c0-0.8,0.2-1.5,0.7-2c0.5-0.5,1.1-0.8,1.8-0.8
			c1.3,0,2,0.7,2,2c0,0.8-0.2,1.5-0.7,2.1c-0.5,0.6-1.1,0.8-1.7,0.8c-0.6,0-1.1-0.2-1.5-0.5C941.8,305.6,941.6,305.1,941.6,304.5z"
			/>
		<path class="st0" d="M955.7,333.4c0-1.1,0.3-2,0.9-2.7c0.6-0.7,1.4-1,2.4-1c0.7,0,1.2,0.2,1.6,0.6c0.4,0.4,0.6,1,0.6,1.8
			c0,1-0.3,1.9-0.9,2.6c-0.6,0.7-1.4,1-2.3,1c-0.7,0-1.3-0.2-1.7-0.6C955.9,334.7,955.7,334.1,955.7,333.4z M967.1,302.5l-6.1,23.6
			h-2.4c0.7-4.6,2-12.4,3.9-23.6H967.1z"/>
	</g>
</g>
</svg>
