<?xml version="1.0" encoding="iso-8859-1"?>
<!-- Generator: Adobe Illustrator 19.0.0, SVG Export Plug-In . SVG Version: 6.00 Build 0)  -->
<svg version="1.1" id="Layer_1" xmlns="http://www.w3.org/2000/svg" xmlns:xlink="http://www.w3.org/1999/xlink" x="0px" y="0px"
	 viewBox="0 0 512 512" style="enable-background:new 0 0 512 512;" xml:space="preserve">
<g>
	<g>
		<path d="M422.268,21.113v-2.639C422.268,8.288,413.98,0,403.794,0H382.68c-10.186,0-18.474,8.288-18.474,18.474v2.639h-79.175
			v-2.639C285.031,8.288,276.743,0,266.557,0h-21.113c-10.186,0-18.474,8.288-18.474,18.474v2.639h-79.175v-2.639
			C147.794,8.288,139.506,0,129.32,0h-21.113C98.02,0,89.732,8.288,89.732,18.474v2.639H0V512h512V21.113H422.268z M380.041,18.474
			c0-1.43,1.209-2.639,2.639-2.639h21.113c1.43,0,2.639,1.209,2.639,2.639V63.34h-26.392V18.474z M242.804,18.474
			c0-1.43,1.209-2.639,2.639-2.639h21.113c1.43,0,2.639,1.209,2.639,2.639V63.34h-26.392V18.474z M105.567,18.474
			c0-1.43,1.209-2.639,2.639-2.639h21.113c1.43,0,2.639,1.209,2.639,2.639V63.34h-26.392V18.474z M496.165,496.165H15.835V163.629
			h480.33V496.165z M496.165,147.794H15.835v-26.392h424.907v-15.835H15.835V36.948h73.897v42.227h58.062V36.948h79.175v42.227
			h58.062V36.948h79.175v42.227h58.062V36.948h73.897V147.794z"/>
	</g>
</g>
<g>
	<g>
		<path d="M36.948,184.742v290.309h333.176l104.927-104.927V184.742H36.948z M374.763,448.02v-73.257h73.257L374.763,448.02z
			 M459.216,358.928H358.928v100.289H52.784V200.577h406.433V358.928z"/>
	</g>
</g>
<g>
	<g>
		<polygon points="200.577,385.32 200.577,242.804 155.711,242.804 155.711,258.639 184.742,258.639 184.742,385.32 160.99,385.32 
			160.99,401.155 224.33,401.155 224.33,385.32 		"/>
	</g>
</g>
<g>
	<g>
		<path d="M313.081,319.34c11.74-8.1,19.455-21.637,19.455-36.948c0-24.74-20.126-44.866-44.866-44.866
			s-44.866,20.126-44.866,44.866c0,15.311,7.714,28.848,19.455,36.948c-11.74,8.1-19.455,21.637-19.455,36.948
			c0,24.74,20.126,44.866,44.866,44.866s44.866-20.126,44.866-44.866C332.536,340.977,324.822,327.44,313.081,319.34z
			 M258.639,282.392c0-16.008,13.024-29.031,29.031-29.031s29.031,13.023,29.031,29.031s-13.024,29.031-29.031,29.031
			S258.639,298.4,258.639,282.392z M287.67,385.32c-16.007,0-29.031-13.023-29.031-29.031s13.024-29.031,29.031-29.031
			s29.031,13.023,29.031,29.031S303.677,385.32,287.67,385.32z"/>
	</g>
</g>
<g>
	<g>
		<rect x="71.258" y="221.691" width="21.113" height="15.835"/>
	</g>
</g>
<g>
	<g>
		<rect x="71.258" y="422.268" width="21.113" height="15.835"/>
	</g>
</g>
<g>
	<g>
		<rect x="419.629" y="221.691" width="21.113" height="15.835"/>
	</g>
</g>
<g>
</g>
<g>
</g>
<g>
</g>
<g>
</g>
<g>
</g>
<g>
</g>
<g>
</g>
<g>
</g>
<g>
</g>
<g>
</g>
<g>
</g>
<g>
</g>
<g>
</g>
<g>
</g>
<g>
</g>
</svg>
